STARTFONT 2.1
COMMENT 
COMMENT This file has been produced by ttf2bdf written by Subhabrata Biswas
COMMENT 
COMMENT For comments, questions, bug reports, send a mail to
COMMENT                                           subhabrata.biswas@usa.net
COMMENT 
FONT -*-Verdana-Medium-R-Normal--37-280-96-96-c-19--fontspecific
SIZE 28 96 96
FONTBOUNDINGBOX 77 45 -21 -11
STARTPROPERTIES 15
FOUNDRY "Misc"
FAMILY_NAME "Verdana"
WEIGHT_NAME "Medium"
SLANT "R"
SETWIDTH_NAME "Normal"
PIXEL_SIZE 20
POINT_SIZE 280
RESOLUTION_X 96
RESOLUTION_Y 96
SPACING "C"
CHARSET_ENCODING "fontspecific"
FONT_ASCENT 38
FONT_DESCENT 7
DEFAULT_CHAR 31
COPYRIGHT "You may wish to put your copyright here"
ENDPROPERTIES
CHARS 226
STARTCHAR C0030
ENCODING 30
SWIDTH 991 0
DWIDTH 37 0
BBX 28 28 5 0
BITMAP
FFFFFFF0
FFFFFFF0
C0000030
C0000030
C0000030
C0000030
C0000030
C0000030
C0000030
C0000030
C0000030
C0000030
C0000030
C0000030
C0000030
C0000030
C0000030
C0000030
C0000030
C0000030
C0000030
C0000030
C0000030
C0000030
C0000030
C0000030
FFFFFFF0
FFFFFFF0
ENDCHAR
STARTCHAR C0031
ENCODING 31
SWIDTH 991 0
DWIDTH 37 0
BBX 28 28 5 0
BITMAP
FFFFFFF0
FFFFFFF0
C0000030
C0000030
C0000030
C0000030
C0000030
C0000030
C0000030
C0000030
C0000030
C0000030
C0000030
C0000030
C0000030
C0000030
C0000030
C0000030
C0000030
C0000030
C0000030
C0000030
C0000030
C0000030
C0000030
C0000030
FFFFFFF0
FFFFFFF0
ENDCHAR
STARTCHAR C0032- 
ENCODING 32
SWIDTH 348 0
DWIDTH 13 0
BBX 1 1 0 -1
BITMAP
00
ENDCHAR
STARTCHAR C0033-!
ENCODING 33
SWIDTH 401 0
DWIDTH 15 0
BBX 4 27 5 0
BITMAP
F0
F0
F0
F0
F0
F0
F0
F0
F0
F0
F0
F0
F0
F0
F0
F0
F0
F0
F0
F0
00
00
00
F0
F0
F0
F0
ENDCHAR
STARTCHAR C0034-"
ENCODING 34
SWIDTH 455 0
DWIDTH 17 0
BBX 11 10 3 18
BITMAP
F1E0
F1E0
F1E0
F1E0
F1E0
F1E0
60C0
60C0
60C0
60C0
ENDCHAR
STARTCHAR C0035-#
ENCODING 35
SWIDTH 803 0
DWIDTH 30 0
BBX 23 27 4 0
BITMAP
003030
003030
006060
006060
006060
006060
00C0C0
00C0C0
3FFFFE
3FFFFE
018180
018180
018180
018380
030300
030300
030300
FFFFF8
FFFFF8
060600
060600
0C0C00
0C0C00
0C0C00
0C0C00
181800
181800
ENDCHAR
STARTCHAR C0036-$
ENCODING 36
SWIDTH 642 0
DWIDTH 24 0
BBX 18 35 3 -6
BITMAP
00C000
00C000
00C000
00C000
00C000
07FC00
1FFF80
3FFF80
7CC780
F8C080
F0C000
F0C000
F0C000
F8C000
7CC000
7FC000
3FFC00
07FF00
00FF80
00CFC0
00C3C0
00C3C0
00C3C0
00C3C0
80C780
F0CF80
FFFF00
FFFE00
1FF000
00C000
00C000
00C000
00C000
00C000
00C000
ENDCHAR
STARTCHAR C0037-%
ENCODING 37
SWIDTH 1071 0
DWIDTH 40 0
BBX 34 28 3 0
BITMAP
0F80000000
3FE0038000
78F0070000
7070070000
E0380E0000
E0380E0000
E0380C0000
E0381C0000
E038180000
E038380000
E038300000
E038700000
7070607C00
78F0E1FF00
3FE0C3C780
0F81C38380
00018701C0
00038701C0
00030701C0
00070701C0
00060701C0
000E0701C0
000C0701C0
001C0701C0
001C038380
003803C780
003801FF00
0070007C00
ENDCHAR
STARTCHAR C0038-&
ENCODING 38
SWIDTH 723 0
DWIDTH 27 0
BBX 26 28 2 0
BITMAP
03F00000
0FFC0000
3E3E0000
3C1F0000
780F0000
780F0000
780F0000
780F0000
7C1E0000
3E1E0000
1F3C0000
0FF07800
0FE07800
1FF07800
3CF87800
78787800
703C7800
F01E7000
F00F7000
F007F000
F003E000
F001F000
F801F800
7C03FC00
7E0F3E00
3FFE1F00
1FFC0F80
07F007C0
ENDCHAR
STARTCHAR C0039-'
ENCODING 39
SWIDTH 267 0
DWIDTH 10 0
BBX 4 10 3 18
BITMAP
F0
F0
F0
F0
F0
F0
60
60
60
60
ENDCHAR
STARTCHAR C0040-(
ENCODING 40
SWIDTH 455 0
DWIDTH 17 0
BBX 11 35 3 -7
BITMAP
03E0
03C0
0780
0F00
1E00
1C00
3C00
3800
3800
7000
7000
7000
F000
E000
E000
E000
E000
E000
E000
E000
E000
E000
F000
7000
7000
7000
3800
3800
3C00
1C00
1E00
0F00
0780
03C0
03E0
ENDCHAR
STARTCHAR C0041-)
ENCODING 41
SWIDTH 455 0
DWIDTH 17 0
BBX 11 35 3 -7
BITMAP
F800
7800
3C00
1E00
0F00
0700
0780
0380
0380
01C0
01C0
01C0
01E0
00E0
00E0
00E0
00E0
00E0
00E0
00E0
00E0
00E0
01E0
01C0
01C0
01C0
0380
0380
0780
0700
0F00
1E00
3C00
7800
F800
ENDCHAR
STARTCHAR C0042-*
ENCODING 42
SWIDTH 642 0
DWIDTH 24 0
BBX 18 17 3 11
BITMAP
00C000
00C000
00C000
40C080
F0C3C0
7CCF80
1FFE00
07F800
01E000
07F800
1FFE00
7CCF80
F0C3C0
40C080
00C000
00C000
00C000
ENDCHAR
STARTCHAR C0043-+
ENCODING 43
SWIDTH 803 0
DWIDTH 30 0
BBX 23 23 4 0
BITMAP
003800
003800
003800
003800
003800
003800
003800
003800
003800
003800
FFFFFE
FFFFFE
FFFFFE
003800
003800
003800
003800
003800
003800
003800
003800
003800
003800
ENDCHAR
STARTCHAR C0044-,
ENCODING 44
SWIDTH 348 0
DWIDTH 13 0
BBX 8 12 3 -7
BITMAP
1F
1E
1E
3C
3C
3C
78
78
70
70
E0
E0
ENDCHAR
STARTCHAR C0045--
ENCODING 45
SWIDTH 455 0
DWIDTH 17 0
BBX 11 3 3 10
BITMAP
FFE0
FFE0
FFE0
ENDCHAR
STARTCHAR C0046-.
ENCODING 46
SWIDTH 348 0
DWIDTH 13 0
BBX 4 5 5 0
BITMAP
F0
F0
F0
F0
F0
ENDCHAR
STARTCHAR C0047-/
ENCODING 47
SWIDTH 455 0
DWIDTH 17 0
BBX 16 33 -1 -5
BITMAP
0007
000E
000E
001E
001C
001C
0038
0038
0078
0070
0070
00F0
00E0
00E0
01C0
01C0
03C0
0380
0380
0700
0700
0F00
0E00
0E00
1E00
1C00
1C00
3800
3800
7800
7000
7000
E000
ENDCHAR
STARTCHAR C0048-0
ENCODING 48
SWIDTH 642 0
DWIDTH 24 0
BBX 20 28 2 0
BITMAP
03FC00
0FFF00
1FFF80
3E07C0
3C03C0
7801E0
7801E0
7801E0
F000F0
F000F0
F000F0
F000F0
F000F0
F000F0
F000F0
F000F0
F000F0
F000F0
F000F0
F000F0
7801E0
7801E0
7801E0
3C03C0
3E07C0
1FFF80
0FFF00
03FC00
ENDCHAR
STARTCHAR C0049-1
ENCODING 49
SWIDTH 642 0
DWIDTH 24 0
BBX 15 27 5 0
BITMAP
01C0
03C0
03C0
0FC0
FFC0
FFC0
FFC0
03C0
03C0
03C0
03C0
03C0
03C0
03C0
03C0
03C0
03C0
03C0
03C0
03C0
03C0
03C0
03C0
03C0
FFFE
FFFE
FFFE
ENDCHAR
STARTCHAR C0050-2
ENCODING 50
SWIDTH 642 0
DWIDTH 24 0
BBX 19 28 3 0
BITMAP
0FF800
7FFE00
7FFF00
781F80
400780
0003C0
0003C0
0003C0
0003C0
0003C0
0007C0
000780
000F80
000F00
001E00
003E00
007C00
00F800
01F000
03C000
0F8000
1F0000
3E0000
7C0000
F80000
FFFFE0
FFFFE0
FFFFE0
ENDCHAR
STARTCHAR C0051-3
ENCODING 51
SWIDTH 642 0
DWIDTH 24 0
BBX 18 28 3 0
BITMAP
0FF000
7FFC00
7FFF00
781F00
400F80
000780
000780
000780
000780
000F00
003E00
03FC00
03F800
03FE00
001F00
000780
0003C0
0003C0
0003C0
0003C0
0003C0
0003C0
000780
800F80
F01F00
FFFE00
FFFC00
0FF000
ENDCHAR
STARTCHAR C0052-4
ENCODING 52
SWIDTH 642 0
DWIDTH 24 0
BBX 20 27 1 0
BITMAP
000F00
001F00
003F00
007F00
007F00
00FF00
01EF00
03CF00
078F00
0F0F00
0E0F00
1E0F00
3C0F00
780F00
F00F00
E00F00
FFFFF0
FFFFF0
FFFFF0
000F00
000F00
000F00
000F00
000F00
000F00
000F00
000F00
ENDCHAR
STARTCHAR C0053-5
ENCODING 53
SWIDTH 642 0
DWIDTH 24 0
BBX 18 28 3 0
BITMAP
7FFFC0
7FFFC0
7FFFC0
780000
780000
780000
780000
780000
780000
780000
7FF000
7FFE00
7FFF00
601F80
000F80
0007C0
0003C0
0003C0
0003C0
0003C0
0003C0
0007C0
000780
800F80
F01F00
FFFE00
FFFC00
1FF000
ENDCHAR
STARTCHAR C0054-6
ENCODING 54
SWIDTH 642 0
DWIDTH 24 0
BBX 20 28 2 0
BITMAP
007F80
01FF80
07FF80
0FC080
1F0000
3E0000
3C0000
780000
780000
780000
F1FE00
F7FF80
FFFFC0
FC07E0
F003E0
F001F0
F000F0
F000F0
F000F0
F000F0
7800F0
7800F0
7801E0
3C03E0
3F07C0
1FFF80
07FF00
01FC00
ENDCHAR
STARTCHAR C0055-7
ENCODING 55
SWIDTH 642 0
DWIDTH 24 0
BBX 18 27 3 0
BITMAP
FFFFC0
FFFFC0
FFFFC0
0003C0
0003C0
000780
000780
000F00
001F00
001E00
003E00
003C00
007C00
007800
00F800
00F000
01F000
01E000
03E000
03C000
07C000
078000
0F8000
0F0000
1F0000
1E0000
3E0000
ENDCHAR
STARTCHAR C0056-8
ENCODING 56
SWIDTH 642 0
DWIDTH 24 0
BBX 20 28 2 0
BITMAP
03FC00
0FFF00
1FFF80
3E07C0
3C03E0
7801E0
7801E0
7801E0
7801E0
7C01C0
3F03C0
1FC780
0FFF00
0FFE00
1E7F80
3C0FC0
7803E0
F001F0
F000F0
F000F0
F000F0
F000F0
F801F0
7C01E0
7E07C0
3FFF80
0FFF00
03FC00
ENDCHAR
STARTCHAR C0057-9
ENCODING 57
SWIDTH 642 0
DWIDTH 24 0
BBX 20 28 2 0
BITMAP
03F800
0FFE00
1FFF80
3E0FC0
7C03C0
7801E0
F001E0
F000E0
F000F0
F000F0
F000F0
F000F0
F800F0
7C00F0
7E03F0
3FFFF0
1FFEF0
03F8E0
0001E0
0001E0
0001E0
0003C0
0007C0
000F80
103F00
1FFE00
1FF800
1FE000
ENDCHAR
STARTCHAR C0058-:
ENCODING 58
SWIDTH 455 0
DWIDTH 17 0
BBX 4 20 6 0
BITMAP
F0
F0
F0
F0
F0
00
00
00
00
00
00
00
00
00
00
F0
F0
F0
F0
F0
ENDCHAR
STARTCHAR C0059-;
ENCODING 59
SWIDTH 455 0
DWIDTH 17 0
BBX 8 27 3 -7
BITMAP
1E
1E
1E
1E
1E
00
00
00
00
00
00
00
00
00
00
1F
1E
1E
3C
3C
3C
78
78
70
70
E0
E0
ENDCHAR
STARTCHAR C0060-<
ENCODING 60
SWIDTH 803 0
DWIDTH 30 0
BBX 21 21 5 1
BITMAP
000008
000038
0001F8
0007F0
001FC0
007F00
03FC00
0FE000
3F8000
FE0000
F00000
FE0000
3F8000
0FE000
03FC00
007F00
001FC0
0007F0
0001F8
000038
000008
ENDCHAR
STARTCHAR C0061-=
ENCODING 61
SWIDTH 803 0
DWIDTH 30 0
BBX 21 11 4 6
BITMAP
FFFFF8
FFFFF8
FFFFF8
000000
000000
000000
000000
000000
FFFFF8
FFFFF8
FFFFF8
ENDCHAR
STARTCHAR C0062->
ENCODING 62
SWIDTH 803 0
DWIDTH 30 0
BBX 21 21 5 1
BITMAP
800000
E00000
FC0000
7F0000
1FC000
07F000
01FE00
003F80
000FE0
0003F8
000078
0003F8
000FE0
003F80
01FE00
07F000
1FC000
7F0000
FC0000
E00000
800000
ENDCHAR
STARTCHAR C0063-?
ENCODING 63
SWIDTH 535 0
DWIDTH 20 0
BBX 15 28 3 0
BITMAP
1FC0
FFF0
FFF8
E07C
803E
001E
001E
001E
001E
001E
003C
007C
00F8
01F0
03E0
07C0
0700
0700
0700
0700
0700
0000
0000
0000
0780
0780
0780
0780
ENDCHAR
STARTCHAR C0064-@
ENCODING 64
SWIDTH 991 0
DWIDTH 37 0
BBX 31 32 3 -4
BITMAP
000FF000
007FFE00
01F00F80
03C003C0
070000E0
0E000070
1C000078
380FCE38
381FFE1C
707FFE1C
70781E1C
70F00E0E
E0E00E0E
E1C00E0E
E1C00E0E
E1C00E0E
E1C00E0E
E1C00E0E
E1C00E0E
E1E00E0E
70E01E1C
70F07E1C
707FFE1C
383FEFF8
381F8FF8
1C000000
0E000000
07000000
03C00000
01F00600
007FFE00
000FFC00
ENDCHAR
STARTCHAR C0065-A
ENCODING 65
SWIDTH 669 0
DWIDTH 25 0
BBX 25 27 0 0
BITMAP
003E0000
007F0000
007F0000
007F0000
00F78000
00F78000
00F78000
01E3C000
01E3C000
01E3C000
03C1E000
03C1E000
07C1F000
0780F000
0780F000
0F007800
0FFFF800
0FFFF800
1FFFFC00
1E003C00
3E003E00
3C001E00
3C001E00
7C001F00
78000F00
78000F00
F0000780
ENDCHAR
STARTCHAR C0066-B
ENCODING 66
SWIDTH 669 0
DWIDTH 25 0
BBX 20 27 4 0
BITMAP
FFFC00
FFFF00
FFFF80
F00F80
F003C0
F003C0
F003C0
F003C0
F003C0
F00780
F00F00
FFFE00
FFFF80
FFFFC0
F007E0
F001E0
F000F0
F000F0
F000F0
F000F0
F000F0
F001F0
F001E0
F007E0
FFFFC0
FFFF00
FFFC00
ENDCHAR
STARTCHAR C0067-C
ENCODING 67
SWIDTH 696 0
DWIDTH 26 0
BBX 23 28 2 0
BITMAP
007FC0
01FFF8
07FFFE
0FC07E
1F001E
3E0006
3C0002
780000
780000
780000
F00000
F00000
F00000
F00000
F00000
F00000
F00000
F00000
F80000
780000
780000
3C0002
3E0006
1F001E
0FC07E
07FFFE
03FFF8
007FC0
ENDCHAR
STARTCHAR C0068-D
ENCODING 68
SWIDTH 776 0
DWIDTH 29 0
BBX 23 27 4 0
BITMAP
FFF800
FFFF00
FFFFC0
F00FE0
F001F0
F000F8
F00078
F0003C
F0003C
F0003E
F0001E
F0001E
F0001E
F0001E
F0001E
F0001E
F0001E
F0003C
F0003C
F0003C
F00078
F000F8
F001F0
F00FE0
FFFFC0
FFFF00
FFF800
ENDCHAR
STARTCHAR C0069-E
ENCODING 69
SWIDTH 616 0
DWIDTH 23 0
BBX 17 27 4 0
BITMAP
FFFF80
FFFF80
FFFF80
F00000
F00000
F00000
F00000
F00000
F00000
F00000
F00000
FFFF80
FFFF80
FFFF80
F00000
F00000
F00000
F00000
F00000
F00000
F00000
F00000
F00000
F00000
FFFF80
FFFF80
FFFF80
ENDCHAR
STARTCHAR C0070-F
ENCODING 70
SWIDTH 562 0
DWIDTH 21 0
BBX 17 27 4 0
BITMAP
FFFF80
FFFF80
FFFF80
F00000
F00000
F00000
F00000
F00000
F00000
F00000
F00000
FFFE00
FFFE00
FFFE00
F00000
F00000
F00000
F00000
F00000
F00000
F00000
F00000
F00000
F00000
F00000
F00000
F00000
ENDCHAR
STARTCHAR C0071-G
ENCODING 71
SWIDTH 776 0
DWIDTH 29 0
BBX 24 28 2 0
BITMAP
003FE0
01FFFC
07FFFF
0FC03F
1F000F
3E0003
3C0001
780000
780000
780000
F00000
F00000
F00000
F00000
F007FF
F007FF
F007FF
F0000F
78000F
78000F
7C000F
3C000F
3E000F
1F000F
0FC03F
07FFFF
01FFFC
003FC0
ENDCHAR
STARTCHAR C0072-H
ENCODING 72
SWIDTH 750 0
DWIDTH 28 0
BBX 20 27 4 0
BITMAP
F000F0
F000F0
F000F0
F000F0
F000F0
F000F0
F000F0
F000F0
F000F0
F000F0
F000F0
FFFFF0
FFFFF0
FFFFF0
F000F0
F000F0
F000F0
F000F0
F000F0
F000F0
F000F0
F000F0
F000F0
F000F0
F000F0
F000F0
F000F0
ENDCHAR
STARTCHAR C0073-I
ENCODING 73
SWIDTH 428 0
DWIDTH 16 0
BBX 12 27 2 0
BITMAP
FFF0
FFF0
FFF0
0F00
0F00
0F00
0F00
0F00
0F00
0F00
0F00
0F00
0F00
0F00
0F00
0F00
0F00
0F00
0F00
0F00
0F00
0F00
0F00
0F00
FFF0
FFF0
FFF0
ENDCHAR
STARTCHAR C0074-J
ENCODING 74
SWIDTH 455 0
DWIDTH 17 0
BBX 13 27 1 0
BITMAP
0FF8
0FF8
0FF8
0078
0078
0078
0078
0078
0078
0078
0078
0078
0078
0078
0078
0078
0078
0078
0078
0078
0078
0078
00F8
C1F0
FFE0
FFC0
FF00
ENDCHAR
STARTCHAR C0075-K
ENCODING 75
SWIDTH 696 0
DWIDTH 26 0
BBX 22 27 4 0
BITMAP
F001F8
F003F0
F003E0
F007C0
F00F80
F01F00
F03E00
F07C00
F0F800
F1F000
F3E000
F7C000
F78000
FFC000
FFE000
FDF000
F8F800
F0FC00
F07C00
F03E00
F01F00
F00F80
F007C0
F003E0
F001F0
F000F8
F0007C
ENDCHAR
STARTCHAR C0076-L
ENCODING 76
SWIDTH 562 0
DWIDTH 21 0
BBX 17 27 4 0
BITMAP
F00000
F00000
F00000
F00000
F00000
F00000
F00000
F00000
F00000
F00000
F00000
F00000
F00000
F00000
F00000
F00000
F00000
F00000
F00000
F00000
F00000
F00000
F00000
F00000
FFFF80
FFFF80
FFFF80
ENDCHAR
STARTCHAR C0077-M
ENCODING 77
SWIDTH 830 0
DWIDTH 31 0
BBX 23 27 4 0
BITMAP
FC003E
FC007E
FC007E
FE00FE
FE00FE
F700DE
F701DE
F701DE
F3839E
F3839E
F1C31E
F1C71E
F0C61E
F0EE1E
F0EE1E
F07C1E
F07C1E
F0381E
F0381E
F0381E
F0001E
F0001E
F0001E
F0001E
F0001E
F0001E
F0001E
ENDCHAR
STARTCHAR C0078-N
ENCODING 78
SWIDTH 750 0
DWIDTH 28 0
BBX 20 27 4 0
BITMAP
FC00F0
FE00F0
FE00F0
FF00F0
F700F0
F700F0
F380F0
F380F0
F1C0F0
F1C0F0
F0E0F0
F0E0F0
F0F0F0
F070F0
F078F0
F038F0
F038F0
F01CF0
F01CF0
F00EF0
F00EF0
F007F0
F007F0
F007F0
F003F0
F003F0
F001F0
ENDCHAR
STARTCHAR C0079-O
ENCODING 79
SWIDTH 776 0
DWIDTH 29 0
BBX 25 28 2 0
BITMAP
007F0000
03FFE000
07FFF000
0F80F800
1F007C00
3E003E00
3C001E00
78000F00
78000F00
F8000F80
F0000780
F0000780
F0000780
F0000780
F0000780
F0000780
F0000780
F0000780
F8000F80
78000F00
78000F00
3C001E00
3E003E00
1F007C00
0FC1F800
07FFF000
03FFE000
007F0000
ENDCHAR
STARTCHAR C0080-P
ENCODING 80
SWIDTH 589 0
DWIDTH 22 0
BBX 17 27 4 0
BITMAP
FFE000
FFFC00
FFFE00
F03F00
F00F00
F00F80
F00780
F00780
F00780
F00780
F00780
F00F00
F01F00
F03E00
FFFE00
FFF800
FFE000
F00000
F00000
F00000
F00000
F00000
F00000
F00000
F00000
F00000
F00000
ENDCHAR
STARTCHAR C0081-Q
ENCODING 81
SWIDTH 776 0
DWIDTH 29 0
BBX 26 35 2 -7
BITMAP
007F0000
03FFE000
07FFF000
0F80F800
1F007C00
3E003E00
3C001E00
78000F00
78000F00
F8000F80
F0000780
F0000780
F0000780
F0000780
F0000780
F0000780
F0000780
F0000780
F8000F80
78000F00
78000F00
3C001E00
3E003E00
1F007C00
0FC1F800
07FFF000
03FFE000
007FC000
0003C000
0003C000
0003E000
0001F0C0
0000FFC0
00007FC0
00003FC0
ENDCHAR
STARTCHAR C0082-R
ENCODING 82
SWIDTH 696 0
DWIDTH 26 0
BBX 22 27 4 0
BITMAP
FFF800
FFFE00
FFFF00
F00F80
F007C0
F003C0
F003C0
F003C0
F003C0
F003C0
F00780
F00780
F01F00
FFFE00
FFF800
FFF800
F07C00
F03C00
F03E00
F01F00
F00F80
F007C0
F003C0
F003E0
F001F0
F000F8
F0007C
ENDCHAR
STARTCHAR C0083-S
ENCODING 83
SWIDTH 669 0
DWIDTH 25 0
BBX 21 28 2 0
BITMAP
03FF00
0FFFE0
1FFFF0
3E03F0
780070
F80010
F00000
F00000
F00000
F00000
F80000
7F0000
3FF800
1FFF80
07FFE0
007FF0
0003F0
0000F8
000078
000078
000078
800078
C000F0
F001F0
FE03E0
FFFFC0
3FFF80
07FC00
ENDCHAR
STARTCHAR C0084-T
ENCODING 84
SWIDTH 616 0
DWIDTH 23 0
BBX 24 27 0 0
BITMAP
FFFFFF
FFFFFF
FFFFFF
003C00
003C00
003C00
003C00
003C00
003C00
003C00
003C00
003C00
003C00
003C00
003C00
003C00
003C00
003C00
003C00
003C00
003C00
003C00
003C00
003C00
003C00
003C00
003C00
ENDCHAR
STARTCHAR C0085-U
ENCODING 85
SWIDTH 723 0
DWIDTH 27 0
BBX 21 27 3 0
BITMAP
F00078
F00078
F00078
F00078
F00078
F00078
F00078
F00078
F00078
F00078
F00078
F00078
F00078
F00078
F00078
F00078
F00078
F00078
F00078
F00078
7800F0
7800F0
7C01F0
3F07E0
1FFFC0
0FFF80
01FC00
ENDCHAR
STARTCHAR C0086-V
ENCODING 86
SWIDTH 669 0
DWIDTH 25 0
BBX 25 27 0 0
BITMAP
F0000780
78000F00
78000F00
7C001F00
3C001E00
3C001E00
3E003E00
1E003C00
1E003C00
0F007800
0F007800
0F007800
0780F000
0780F000
07C1F000
03C1E000
03C1E000
01E3C000
01E3C000
01E3C000
00F78000
00F78000
00F78000
007F0000
007F0000
007F0000
003E0000
ENDCHAR
STARTCHAR C0087-W
ENCODING 87
SWIDTH 991 0
DWIDTH 37 0
BBX 33 27 2 0
BITMAP
F001C00780
F003E00780
7803E00F00
7803E00F00
7803E00F00
7807700F00
3C07701E00
3C07701E00
3C06701E00
3C0E381E00
1E0E381C00
1E0E383C00
1E0E383C00
0E1C1C3C00
0E1C1C3800
0F1C1C3800
0F1C1C7800
07380E7800
07380E7000
07B80E7000
07B80EF000
03F007E000
03F007E000
03F007E000
03F007E000
01E003C000
01E003C000
ENDCHAR
STARTCHAR C0088-X
ENCODING 88
SWIDTH 669 0
DWIDTH 25 0
BBX 23 27 1 0
BITMAP
F8003E
7C007C
3C0078
3E00F8
1F01F0
0F01E0
0783C0
0783C0
03C780
01EF00
01EF00
00FE00
007C00
007C00
007C00
00FE00
01EF00
01EF80
03C780
0783C0
0783E0
0F01E0
1F01F0
3E00F8
3C0078
7C007C
F8003E
ENDCHAR
STARTCHAR C0089-Y
ENCODING 89
SWIDTH 616 0
DWIDTH 23 0
BBX 24 27 0 0
BITMAP
F8001F
7C003E
3C003C
3E007C
1E0078
0F00F0
0F81F0
0781E0
07C3C0
03C3C0
01E780
01FF00
00FF00
007E00
007C00
003C00
003C00
003C00
003C00
003C00
003C00
003C00
003C00
003C00
003C00
003C00
003C00
ENDCHAR
STARTCHAR C0090-Z
ENCODING 90
SWIDTH 669 0
DWIDTH 25 0
BBX 21 27 2 0
BITMAP
7FFFF8
7FFFF8
7FFFF8
0000F8
0001F0
0003E0
0007C0
0007C0
000F80
001F00
003E00
003C00
007C00
00F800
01F000
01E000
03E000
07C000
0F8000
1F0000
1E0000
3E0000
7C0000
F80000
FFFFF8
FFFFF8
FFFFF8
ENDCHAR
STARTCHAR C0091-[
ENCODING 91
SWIDTH 455 0
DWIDTH 17 0
BBX 9 35 4 -7
BITMAP
FF80
FF80
FF80
E000
E000
E000
E000
E000
E000
E000
E000
E000
E000
E000
E000
E000
E000
E000
E000
E000
E000
E000
E000
E000
E000
E000
E000
E000
E000
E000
E000
E000
FF80
FF80
FF80
ENDCHAR
STARTCHAR C0092-\
ENCODING 92
SWIDTH 455 0
DWIDTH 17 0
BBX 16 33 1 -5
BITMAP
E000
7000
7000
7800
3800
3800
1C00
1C00
1E00
0E00
0E00
0F00
0700
0700
0380
0380
03C0
01C0
01C0
00E0
00E0
00F0
0070
0070
0078
0038
0038
001C
001C
001E
000E
000E
0007
ENDCHAR
STARTCHAR C0093-]
ENCODING 93
SWIDTH 455 0
DWIDTH 17 0
BBX 9 35 3 -7
BITMAP
FF80
FF80
FF80
0380
0380
0380
0380
0380
0380
0380
0380
0380
0380
0380
0380
0380
0380
0380
0380
0380
0380
0380
0380
0380
0380
0380
0380
0380
0380
0380
0380
0380
FF80
FF80
FF80
ENDCHAR
STARTCHAR C0094-^
ENCODING 94
SWIDTH 803 0
DWIDTH 30 0
BBX 24 15 3 12
BITMAP
003C00
003C00
007E00
00FF00
00E700
01C380
03C3C0
0781E0
0700E0
0F00F0
1E0078
1C0038
38001C
78001E
F0000F
ENDCHAR
STARTCHAR C0095-_
ENCODING 95
SWIDTH 642 0
DWIDTH 24 0
BBX 24 2 0 -5
BITMAP
FFFFFF
FFFFFF
ENDCHAR
STARTCHAR C0096-`
ENCODING 96
SWIDTH 642 0
DWIDTH 24 0
BBX 8 7 6 24
BITMAP
F8
78
3C
1C
1E
0E
07
ENDCHAR
STARTCHAR C0097-a
ENCODING 97
SWIDTH 589 0
DWIDTH 22 0
BBX 17 21 2 0
BITMAP
0FF800
3FFE00
3FFF00
301F00
000F80
000780
000780
01FF80
0FFF80
3FFF80
7F0780
780780
F00780
F00780
F00780
F00780
F00F80
783F80
7FFF80
3FE780
0F8780
ENDCHAR
STARTCHAR C0098-b
ENCODING 98
SWIDTH 616 0
DWIDTH 23 0
BBX 18 28 3 0
BITMAP
F00000
F00000
F00000
F00000
F00000
F00000
F00000
F0F800
F3FE00
FFFF00
FE0F80
F80780
F00780
F003C0
F003C0
F003C0
F003C0
F003C0
F003C0
F003C0
F003C0
F00780
F00780
F00F80
FC1F00
FFFE00
FFFC00
F3F000
ENDCHAR
STARTCHAR C0099-c
ENCODING 99
SWIDTH 508 0
DWIDTH 19 0
BBX 16 21 2 0
BITMAP
03F8
0FFF
1FFF
3E07
7C01
7800
7800
F000
F000
F000
F000
F000
F000
F000
F800
7800
7C01
3E07
1FFF
0FFF
03F8
ENDCHAR
STARTCHAR C0100-d
ENCODING 100
SWIDTH 616 0
DWIDTH 23 0
BBX 18 28 2 0
BITMAP
0003C0
0003C0
0003C0
0003C0
0003C0
0003C0
0003C0
03F3C0
0FFFC0
1FFFC0
3E07C0
7C03C0
7803C0
7803C0
F003C0
F003C0
F003C0
F003C0
F003C0
F003C0
F003C0
F003C0
7803C0
7807C0
3E1FC0
3FFFC0
1FF3C0
07E3C0
ENDCHAR
STARTCHAR C0101-e
ENCODING 101
SWIDTH 589 0
DWIDTH 22 0
BBX 18 21 2 0
BITMAP
03F800
0FFE00
1FFF00
3E0F80
7C0780
7803C0
7003C0
F003C0
FFFFC0
FFFFC0
FFFFC0
F00000
F00000
F00000
780000
780000
7C0040
3F03C0
1FFFC0
0FFFC0
01FE00
ENDCHAR
STARTCHAR C0102-f
ENCODING 102
SWIDTH 348 0
DWIDTH 13 0
BBX 13 28 1 0
BITMAP
03F8
0FF8
1FF8
1E00
3C00
3C00
3C00
3C00
FFF0
FFF0
FFF0
3C00
3C00
3C00
3C00
3C00
3C00
3C00
3C00
3C00
3C00
3C00
3C00
3C00
3C00
3C00
3C00
3C00
ENDCHAR
STARTCHAR C0103-g
ENCODING 103
SWIDTH 616 0
DWIDTH 23 0
BBX 18 28 2 -7
BITMAP
03F000
0FFFC0
1FFFC0
3E0FC0
7C03C0
7803C0
7803C0
F003C0
F003C0
F003C0
F003C0
F003C0
F003C0
F003C0
F003C0
7803C0
7807C0
3C1FC0
3FFFC0
1FFBC0
07E3C0
0003C0
000380
000780
301F80
3FFF00
3FFE00
1FF000
ENDCHAR
STARTCHAR C0104-h
ENCODING 104
SWIDTH 616 0
DWIDTH 23 0
BBX 17 28 3 0
BITMAP
F00000
F00000
F00000
F00000
F00000
F00000
F00000
F0F800
F3FE00
FFFF00
FE1F00
F80F80
F00780
F00780
F00780
F00780
F00780
F00780
F00780
F00780
F00780
F00780
F00780
F00780
F00780
F00780
F00780
F00780
ENDCHAR
STARTCHAR C0105-i
ENCODING 105
SWIDTH 267 0
DWIDTH 10 0
BBX 4 27 3 0
BITMAP
F0
F0
F0
F0
00
00
00
F0
F0
F0
F0
F0
F0
F0
F0
F0
F0
F0
F0
F0
F0
F0
F0
F0
F0
F0
F0
ENDCHAR
STARTCHAR C0106-j
ENCODING 106
SWIDTH 348 0
DWIDTH 13 0
BBX 11 34 -1 -7
BITMAP
01E0
01E0
01E0
01E0
0000
0000
0000
1FE0
1FE0
1FE0
01E0
01E0
01E0
01E0
01E0
01E0
01E0
01E0
01E0
01E0
01E0
01E0
01E0
01E0
01E0
01E0
01E0
01E0
01E0
03E0
83C0
FFC0
FF80
FE00
ENDCHAR
STARTCHAR C0107-k
ENCODING 107
SWIDTH 589 0
DWIDTH 22 0
BBX 19 28 3 0
BITMAP
F00000
F00000
F00000
F00000
F00000
F00000
F00000
F00000
F00F80
F01F00
F03E00
F07C00
F0F800
F1F000
F3E000
F7C000
FF8000
FF8000
FFC000
FFE000
FBF000
F1F800
F0FC00
F07E00
F03F00
F01F80
F00FC0
F007E0
ENDCHAR
STARTCHAR C0108-l
ENCODING 108
SWIDTH 267 0
DWIDTH 10 0
BBX 4 28 3 0
BITMAP
F0
F0
F0
F0
F0
F0
F0
F0
F0
F0
F0
F0
F0
F0
F0
F0
F0
F0
F0
F0
F0
F0
F0
F0
F0
F0
F0
F0
ENDCHAR
STARTCHAR C0109-m
ENCODING 109
SWIDTH 964 0
DWIDTH 36 0
BBX 30 21 3 0
BITMAP
00F807C0
F3FE1FF0
F7FF7FF8
FE1FF0F8
F80FC07C
F007803C
F007803C
F007803C
F007803C
F007803C
F007803C
F007803C
F007803C
F007803C
F007803C
F007803C
F007803C
F007803C
F007803C
F007803C
F007803C
ENDCHAR
STARTCHAR C0110-n
ENCODING 110
SWIDTH 616 0
DWIDTH 23 0
BBX 17 21 3 0
BITMAP
00F800
F3FE00
FFFF00
FE1F00
F80F80
F00780
F00780
F00780
F00780
F00780
F00780
F00780
F00780
F00780
F00780
F00780
F00780
F00780
F00780
F00780
F00780
ENDCHAR
STARTCHAR C0111-o
ENCODING 111
SWIDTH 589 0
DWIDTH 22 0
BBX 18 21 2 0
BITMAP
03F000
0FFC00
1FFE00
3E1F00
7C0F80
780780
780780
F003C0
F003C0
F003C0
F003C0
F003C0
F003C0
F003C0
780780
780780
7C0F80
3E1F00
1FFE00
0FFC00
03F000
ENDCHAR
STARTCHAR C0112-p
ENCODING 112
SWIDTH 616 0
DWIDTH 23 0
BBX 18 28 3 -7
BITMAP
00F800
F3FE00
FFFF00
FE1F80
F80780
F00780
F003C0
F003C0
F003C0
F003C0
F003C0
F003C0
F003C0
F003C0
F00780
F00780
F00F80
F81F00
FFFE00
FFFC00
F3F000
F00000
F00000
F00000
F00000
F00000
F00000
F00000
ENDCHAR
STARTCHAR C0113-q
ENCODING 113
SWIDTH 616 0
DWIDTH 23 0
BBX 18 28 2 -7
BITMAP
03F000
0FFFC0
1FFFC0
3E0FC0
7C03C0
7803C0
7803C0
F003C0
F003C0
F003C0
F003C0
F003C0
F003C0
F003C0
F003C0
7803C0
7807C0
3E1FC0
3FFFC0
1FFBC0
07E3C0
0003C0
0003C0
0003C0
0003C0
0003C0
0003C0
0003C0
ENDCHAR
STARTCHAR C0114-r
ENCODING 114
SWIDTH 428 0
DWIDTH 16 0
BBX 13 20 3 0
BITMAP
F0F8
F3F8
F7F8
FE00
F800
F000
F000
F000
F000
F000
F000
F000
F000
F000
F000
F000
F000
F000
F000
F000
ENDCHAR
STARTCHAR C0115-s
ENCODING 115
SWIDTH 508 0
DWIDTH 19 0
BBX 15 21 2 0
BITMAP
0FE0
3FFC
7FFC
781C
F004
F000
F000
F800
FE00
7FE0
3FF8
0FFC
007E
003E
001E
801E
C01E
F03C
FFFC
7FF0
1FC0
ENDCHAR
STARTCHAR C0116-t
ENCODING 116
SWIDTH 401 0
DWIDTH 15 0
BBX 13 26 1 0
BITMAP
3C00
3C00
3C00
3C00
3C00
3C00
FFF8
FFF8
FFF8
3C00
3C00
3C00
3C00
3C00
3C00
3C00
3C00
3C00
3C00
3C00
3C00
3C00
3E08
1FF8
0FF8
03F0
ENDCHAR
STARTCHAR C0117-u
ENCODING 117
SWIDTH 616 0
DWIDTH 23 0
BBX 17 20 3 0
BITMAP
F00780
F00780
F00780
F00780
F00780
F00780
F00780
F00780
F00780
F00780
F00780
F00780
F00780
F00780
F00780
F80F80
7C3F80
7FFF80
3FE780
0F8780
ENDCHAR
STARTCHAR C0118-v
ENCODING 118
SWIDTH 589 0
DWIDTH 22 0
BBX 20 20 1 0
BITMAP
F801F0
7801E0
7801E0
7C03E0
3C03C0
3C03C0
1E0780
1E0780
1E0700
0F0F00
0F0F00
070E00
079E00
039C00
03DC00
03FC00
01F800
01F800
00F000
00F000
ENDCHAR
STARTCHAR C0119-w
ENCODING 119
SWIDTH 803 0
DWIDTH 30 0
BBX 26 20 2 0
BITMAP
F00E03C0
F01E03C0
781E0780
781F0780
783F0780
783F0780
38338700
38738700
3C738700
3C618F00
1CE1CE00
1CE1CE00
1CC0CE00
1EC0EE00
0FC0EC00
0FC07C00
0F807C00
0F807C00
07807800
07003800
ENDCHAR
STARTCHAR C0120-x
ENCODING 120
SWIDTH 589 0
DWIDTH 22 0
BBX 20 20 1 0
BITMAP
F801F0
7C03E0
3E07C0
1E0780
0F0F00
0F9F00
079E00
03FC00
01F800
00F000
00F000
01F800
03FC00
079E00
0F9F00
0F0F00
1E0780
3E07C0
7C03E0
F801F0
ENDCHAR
STARTCHAR C0121-y
ENCODING 121
SWIDTH 589 0
DWIDTH 22 0
BBX 20 27 1 -7
BITMAP
F801F0
7801E0
7801E0
3C03C0
3C03C0
3C03C0
1E0780
1E0780
0F0F00
0F0F00
070E00
079E00
079C00
039C00
03FC00
01F800
01F800
00F000
00F000
00E000
01E000
01C000
03C000
03C000
078000
0F8000
0F0000
ENDCHAR
STARTCHAR C0122-z
ENCODING 122
SWIDTH 508 0
DWIDTH 19 0
BBX 15 20 2 0
BITMAP
FFFE
FFFE
FFFE
001E
003C
0078
00F0
01E0
01E0
03C0
0780
0F00
0E00
1E00
3C00
7800
F000
FFFE
FFFE
FFFE
ENDCHAR
STARTCHAR C0123-{
ENCODING 123
SWIDTH 616 0
DWIDTH 23 0
BBX 17 35 3 -7
BITMAP
001F80
007F80
00F000
00E000
01C000
01C000
01C000
01C000
01C000
01C000
01C000
01C000
01C000
038000
078000
0F0000
FC0000
F80000
FC0000
0F0000
078000
038000
01C000
01C000
01C000
01C000
01C000
01C000
01C000
01C000
01C000
00E000
00F000
007F80
001F80
ENDCHAR
STARTCHAR C0124-|
ENCODING 124
SWIDTH 455 0
DWIDTH 17 0
BBX 3 35 7 -7
BITMAP
E0
E0
E0
E0
E0
E0
E0
E0
E0
E0
E0
E0
E0
E0
E0
E0
E0
E0
E0
E0
E0
E0
E0
E0
E0
E0
E0
E0
E0
E0
E0
E0
E0
E0
E0
ENDCHAR
STARTCHAR C0125-}
ENCODING 125
SWIDTH 616 0
DWIDTH 23 0
BBX 17 35 3 -7
BITMAP
FC0000
FF0000
078000
038000
01C000
01C000
01C000
01C000
01C000
01C000
01C000
01C000
01C000
00E000
00F000
007800
001F80
000F80
001F80
007800
00F000
00E000
01C000
01C000
01C000
01C000
01C000
01C000
01C000
01C000
01C000
038000
078000
FF0000
FC0000
ENDCHAR
STARTCHAR C0126-~
ENCODING 126
SWIDTH 803 0
DWIDTH 30 0
BBX 24 10 3 7
BITMAP
0F8007
1FE007
3FF007
78F807
703C0E
703E0E
E01F1E
E00FFC
E007F8
E001F0
ENDCHAR
STARTCHAR C0127
ENCODING 127
SWIDTH 991 0
DWIDTH 37 0
BBX 28 28 5 0
BITMAP
FFFFFFF0
FFFFFFF0
C0000030
C0000030
C0000030
C0000030
C0000030
C0000030
C0000030
C0000030
C0000030
C0000030
C0000030
C0000030
C0000030
C0000030
C0000030
C0000030
C0000030
C0000030
C0000030
C0000030
C0000030
C0000030
C0000030
C0000030
FFFFFFF0
FFFFFFF0
ENDCHAR
STARTCHAR C0128
ENCODING 128
SWIDTH 642 0
DWIDTH 24 0
BBX 23 28 0 0
BITMAP
001FF8
007FFE
01FFFE
03F01E
07C002
0F8000
0F0000
1F0000
1E0000
1E0000
7FFE00
FFFC00
3C0000
3C0000
3C0000
7FF800
FFF000
3E0000
1E0000
1E0000
1F0000
0F8000
078000
07E002
03F80E
01FFFE
007FFE
001FF0
ENDCHAR
STARTCHAR C0129
ENCODING 129
SWIDTH 991 0
DWIDTH 37 0
BBX 28 28 5 0
BITMAP
FFFFFFF0
FFFFFFF0
C0000030
C0000030
C0000030
C0000030
C0000030
C0000030
C0000030
C0000030
C0000030
C0000030
C0000030
C0000030
C0000030
C0000030
C0000030
C0000030
C0000030
C0000030
C0000030
C0000030
C0000030
C0000030
C0000030
C0000030
FFFFFFF0
FFFFFFF0
ENDCHAR
STARTCHAR C0130
ENCODING 130
SWIDTH 267 0
DWIDTH 10 0
BBX 7 10 0 -5
BITMAP
1E
3C
3C
38
38
70
70
70
E0
E0
ENDCHAR
STARTCHAR C0131
ENCODING 131
SWIDTH 991 0
DWIDTH 37 0
BBX 28 28 5 0
BITMAP
FFFFFFF0
FFFFFFF0
C0000030
C0000030
C0000030
C0000030
C0000030
C0000030
C0000030
C0000030
C0000030
C0000030
C0000030
C0000030
C0000030
C0000030
C0000030
C0000030
C0000030
C0000030
C0000030
C0000030
C0000030
C0000030
C0000030
C0000030
FFFFFFF0
FFFFFFF0
ENDCHAR
STARTCHAR C0132
ENCODING 132
SWIDTH 455 0
DWIDTH 17 0
BBX 14 10 0 -5
BITMAP
1E3C
3C78
3C78
3870
3870
70E0
70E0
60C0
E1C0
E1C0
ENDCHAR
STARTCHAR C0133
ENCODING 133
SWIDTH 803 0
DWIDTH 30 0
BBX 24 4 3 0
BITMAP
F03C0F
F03C0F
F03C0F
F03C0F
ENDCHAR
STARTCHAR C0134
ENCODING 134
SWIDTH 642 0
DWIDTH 24 0
BBX 16 26 4 2
BITMAP
0180
0180
0180
0180
0180
0180
0180
FFFF
FFFF
0180
0180
0180
0180
0180
0180
0180
0180
0180
0180
0180
0180
0180
0180
0180
0180
0180
ENDCHAR
STARTCHAR C0135
ENCODING 135
SWIDTH 642 0
DWIDTH 24 0
BBX 16 26 4 2
BITMAP
0180
0180
0180
0180
0180
0180
0180
FFFF
FFFF
0180
0180
0180
0180
0180
0180
0180
0180
FFFF
FFFF
0180
0180
0180
0180
0180
0180
0180
ENDCHAR
STARTCHAR C0136
ENCODING 136
SWIDTH 991 0
DWIDTH 37 0
BBX 28 28 5 0
BITMAP
FFFFFFF0
FFFFFFF0
C0000030
C0000030
C0000030
C0000030
C0000030
C0000030
C0000030
C0000030
C0000030
C0000030
C0000030
C0000030
C0000030
C0000030
C0000030
C0000030
C0000030
C0000030
C0000030
C0000030
C0000030
C0000030
C0000030
C0000030
FFFFFFF0
FFFFFFF0
ENDCHAR
STARTCHAR C0137
ENCODING 137
SWIDTH 1500 0
DWIDTH 56 0
BBX 50 28 3 0
BITMAP
0F800000000000
3FE00380000000
78F00700000000
70700700000000
E0380E00000000
E0380E00000000
E0380C00000000
E0381C00000000
E0381800000000
E0383800000000
E0383000000000
E0387000000000
7070607C007C00
78F0E1FF01FF00
3FE0C3C783C780
0F81C383838380
00018701C701C0
00038701C701C0
00030701C701C0
00070701C701C0
00060701C701C0
000E0701C701C0
000C0701C701C0
001C0701C701C0
001C0383838380
003803C783C780
003801FF01FF00
0070007C007C00
ENDCHAR
STARTCHAR C0138
ENCODING 138
SWIDTH 669 0
DWIDTH 25 0
BBX 21 37 2 0
BITMAP
070380
038700
03C700
01CE00
00FC00
00FC00
007800
000000
000000
03FF00
0FFFE0
1FFFF0
3E03F0
780070
F80010
F00000
F00000
F00000
F00000
F80000
7F0000
3FF800
1FFF80
07FFE0
007FF0
0003F0
0000F8
000078
000078
000078
800078
C000F0
F001F0
FE03E0
FFFFC0
3FFF80
07FC00
ENDCHAR
STARTCHAR C0139
ENCODING 139
SWIDTH 455 0
DWIDTH 17 0
BBX 10 17 3 3
BITMAP
0040
00C0
01C0
07C0
0F80
1E00
3C00
F800
E000
F800
3C00
1E00
0F80
07C0
01C0
00C0
0040
ENDCHAR
STARTCHAR C0140
ENCODING 140
SWIDTH 669 0
DWIDTH 25 0
BBX 21 38 2 0
BITMAP
001F00
001E00
003C00
003800
007800
007000
00E000
000000
000000
000000
03FF00
0FFFE0
1FFFF0
3E03F0
780070
F80010
F00000
F00000
F00000
F00000
F80000
7F0000
3FF800
1FFF80
07FFE0
007FF0
0003F0
0000F8
000078
000078
000078
800078
C000F0
F001F0
FE03E0
FFFFC0
3FFF80
07FC00
ENDCHAR
STARTCHAR C0141
ENCODING 141
SWIDTH 616 0
DWIDTH 23 0
BBX 24 37 0 0
BITMAP
0381C0
01C380
01E380
00E700
007E00
007E00
003C00
000000
000000
000000
FFFFFF
FFFFFF
FFFFFF
003C00
003C00
003C00
003C00
003C00
003C00
003C00
003C00
003C00
003C00
003C00
003C00
003C00
003C00
003C00
003C00
003C00
003C00
003C00
003C00
003C00
003C00
003C00
003C00
ENDCHAR
STARTCHAR C0142
ENCODING 142
SWIDTH 669 0
DWIDTH 25 0
BBX 21 37 2 0
BITMAP
070380
038700
03C700
01CE00
00FC00
00FC00
007800
000000
000000
000000
7FFFF8
7FFFF8
7FFFF8
0000F8
0001F0
0003E0
0007C0
0007C0
000F80
001F00
003E00
003C00
007C00
00F800
01F000
01E000
03E000
07C000
0F8000
1F0000
1E0000
3E0000
7C0000
F80000
FFFFF8
FFFFF8
FFFFF8
ENDCHAR
STARTCHAR C0143
ENCODING 143
SWIDTH 669 0
DWIDTH 25 0
BBX 21 38 2 0
BITMAP
001F00
001E00
003C00
003800
007800
007000
00E000
000000
000000
000000
000000
7FFFF8
7FFFF8
7FFFF8
0000F8
0001F0
0003E0
0007C0
0007C0
000F80
001F00
003E00
003C00
007C00
00F800
01F000
01E000
03E000
07C000
0F8000
1F0000
1E0000
3E0000
7C0000
F80000
FFFFF8
FFFFF8
FFFFF8
ENDCHAR
STARTCHAR C0144
ENCODING 144
SWIDTH 991 0
DWIDTH 37 0
BBX 28 28 5 0
BITMAP
FFFFFFF0
FFFFFFF0
C0000030
C0000030
C0000030
C0000030
C0000030
C0000030
C0000030
C0000030
C0000030
C0000030
C0000030
C0000030
C0000030
C0000030
C0000030
C0000030
C0000030
C0000030
C0000030
C0000030
C0000030
C0000030
C0000030
C0000030
FFFFFFF0
FFFFFFF0
ENDCHAR
STARTCHAR C0145
ENCODING 145
SWIDTH 267 0
DWIDTH 10 0
BBX 7 10 0 18
BITMAP
F0
78
78
38
38
1C
1C
1C
0E
0E
ENDCHAR
STARTCHAR C0146
ENCODING 146
SWIDTH 267 0
DWIDTH 10 0
BBX 7 10 3 18
BITMAP
1E
3C
3C
38
38
70
70
70
E0
E0
ENDCHAR
STARTCHAR C0147
ENCODING 147
SWIDTH 455 0
DWIDTH 17 0
BBX 14 10 0 18
BITMAP
F1E0
78F0
78F0
3870
3870
1C38
1C38
0C18
0E1C
0E1C
ENDCHAR
STARTCHAR C0148
ENCODING 148
SWIDTH 455 0
DWIDTH 17 0
BBX 14 10 3 18
BITMAP
1E3C
3C78
3C78
3870
3870
70E0
70E0
60C0
E1C0
E1C0
ENDCHAR
STARTCHAR C0149
ENCODING 149
SWIDTH 535 0
DWIDTH 20 0
BBX 14 13 3 6
BITMAP
0FC0
1FE0
7FF8
7FF8
FFFC
FFFC
FFFC
FFFC
FFFC
7FF8
7FF8
1FE0
0FC0
ENDCHAR
STARTCHAR C0150
ENCODING 150
SWIDTH 642 0
DWIDTH 24 0
BBX 18 3 3 10
BITMAP
FFFFC0
FFFFC0
FFFFC0
ENDCHAR
STARTCHAR C0151
ENCODING 151
SWIDTH 991 0
DWIDTH 37 0
BBX 31 3 3 10
BITMAP
FFFFFFFE
FFFFFFFE
FFFFFFFE
ENDCHAR
STARTCHAR C0152
ENCODING 152
SWIDTH 991 0
DWIDTH 37 0
BBX 28 28 5 0
BITMAP
FFFFFFF0
FFFFFFF0
C0000030
C0000030
C0000030
C0000030
C0000030
C0000030
C0000030
C0000030
C0000030
C0000030
C0000030
C0000030
C0000030
C0000030
C0000030
C0000030
C0000030
C0000030
C0000030
C0000030
C0000030
C0000030
C0000030
C0000030
FFFFFFF0
FFFFFFF0
ENDCHAR
STARTCHAR C0153
ENCODING 153
SWIDTH 964 0
DWIDTH 36 0
BBX 29 13 3 14
BITMAP
FFC3C078
FFC3E0F8
0C0360D8
0C0331D8
0C033198
0C031B98
0C031B18
0C030F18
0C030E18
0C030618
0C030018
0C030018
0C030018
ENDCHAR
STARTCHAR C0154
ENCODING 154
SWIDTH 508 0
DWIDTH 19 0
BBX 15 30 2 0
BITMAP
381C
1C38
1E38
0E70
07E0
07E0
03C0
0000
0000
0FE0
3FFC
7FFC
781C
F004
F000
F000
F800
FE00
7FE0
3FF8
0FFC
007E
003E
001E
801E
C01E
F03C
FFFC
7FF0
1FC0
ENDCHAR
STARTCHAR C0155
ENCODING 155
SWIDTH 455 0
DWIDTH 17 0
BBX 10 17 4 3
BITMAP
8000
C000
E000
F800
7C00
1E00
0F00
07C0
01C0
07C0
0F00
1E00
7C00
F800
E000
C000
8000
ENDCHAR
STARTCHAR C0156
ENCODING 156
SWIDTH 508 0
DWIDTH 19 0
BBX 15 31 2 0
BITMAP
007C
0078
00F0
00E0
01E0
01C0
0380
0000
0000
0000
0FE0
3FFC
7FFC
781C
F004
F000
F000
F800
FE00
7FE0
3FF8
0FFC
007E
003E
001E
801E
C01E
F03C
FFFC
7FF0
1FC0
ENDCHAR
STARTCHAR C0157
ENCODING 157
SWIDTH 401 0
DWIDTH 15 0
BBX 15 32 1 0
BITMAP
001E
003C
003C
0038
0078
0070
3C70
3CE0
3CE0
3C00
3C00
3C00
FFF8
FFF8
FFF8
3C00
3C00
3C00
3C00
3C00
3C00
3C00
3C00
3C00
3C00
3C00
3C00
3C00
3E08
1FF8
0FF8
03F0
ENDCHAR
STARTCHAR C0158
ENCODING 158
SWIDTH 508 0
DWIDTH 19 0
BBX 15 30 2 0
BITMAP
381C
1C38
1E38
0E70
07E0
07E0
03C0
0000
0000
0000
FFFE
FFFE
FFFE
001E
003C
0078
00F0
01E0
01E0
03C0
0780
0F00
0E00
1E00
3C00
7800
F000
FFFE
FFFE
FFFE
ENDCHAR
STARTCHAR C0159
ENCODING 159
SWIDTH 508 0
DWIDTH 19 0
BBX 15 31 2 0
BITMAP
00F8
00F0
01E0
01C0
03C0
0380
0700
0000
0000
0000
0000
FFFE
FFFE
FFFE
001E
003C
0078
00F0
01E0
01E0
03C0
0780
0F00
0E00
1E00
3C00
7800
F000
FFFE
FFFE
FFFE
ENDCHAR
STARTCHAR C0160
ENCODING 160
SWIDTH 348 0
DWIDTH 13 0
BBX 1 1 0 -1
BITMAP
00
ENDCHAR
STARTCHAR C0161
ENCODING 161
SWIDTH 642 0
DWIDTH 24 0
BBX 12 7 6 23
BITMAP
E070
70E0
78E0
39C0
1F80
1F80
0F00
ENDCHAR
STARTCHAR C0162
ENCODING 162
SWIDTH 642 0
DWIDTH 24 0
BBX 14 7 5 23
BITMAP
E01C
E01C
F03C
7038
3870
1FE0
0FC0
ENDCHAR
STARTCHAR C0163
ENCODING 163
SWIDTH 562 0
DWIDTH 21 0
BBX 20 27 1 0
BITMAP
1E0000
1E0000
1E0000
1E0000
1E0000
1E0000
1E0000
1E0800
1E1800
1E3800
1E7000
1EE000
1FC000
1F8000
1E0000
3E0000
7E0000
FE0000
DE0000
9E0000
1E0000
1E0000
1E0000
1E0000
1FFFF0
1FFFF0
1FFFF0
ENDCHAR
STARTCHAR C0164
ENCODING 164
SWIDTH 642 0
DWIDTH 24 0
BBX 18 18 3 3
BITMAP
600180
F003C0
780780
3DEF00
3FFF00
1FFE00
0E1C00
1C0E00
1C0E00
1C0E00
1C0E00
0E1C00
1FFE00
3FFF00
7DEF80
7807C0
F003C0
600080
ENDCHAR
STARTCHAR C0165
ENCODING 165
SWIDTH 669 0
DWIDTH 25 0
BBX 29 34 0 -7
BITMAP
003E0000
007F0000
007F0000
007F0000
00F78000
00F78000
00F78000
01E3C000
01E3C000
01E3C000
03C1E000
03C1E000
07C1F000
0780F000
0780F000
0F007800
0FFFF800
0FFFF800
1FFFFC00
1E003C00
3E003E00
3C001E00
3C001E00
7C001F00
78000F00
78000F00
F0000F80
00000E00
00000E00
00000E00
00000F08
000007F8
000007F8
000001F8
ENDCHAR
STARTCHAR C0166
ENCODING 166
SWIDTH 455 0
DWIDTH 17 0
BBX 3 35 7 -7
BITMAP
E0
E0
E0
E0
E0
E0
E0
E0
E0
E0
E0
E0
E0
E0
00
00
00
00
00
00
00
E0
E0
E0
E0
E0
E0
E0
E0
E0
E0
E0
E0
E0
E0
ENDCHAR
STARTCHAR C0167
ENCODING 167
SWIDTH 642 0
DWIDTH 24 0
BBX 17 35 3 -7
BITMAP
03FC00
0FFF00
1FFF00
3E0700
7C0100
780000
780000
780000
7C0000
3E0000
3FC000
1FF800
1FFE00
3CFF00
781F80
700F80
F00780
F00780
F00780
F80700
FC0F00
7F9E00
3FFC00
0FFC00
03FE00
003E00
001F00
000F00
000F00
000F00
401F00
703E00
7FFC00
7FF800
1FE000
ENDCHAR
STARTCHAR C0168
ENCODING 168
SWIDTH 642 0
DWIDTH 24 0
BBX 11 4 6 24
BITMAP
F1E0
F1E0
F1E0
F1E0
ENDCHAR
STARTCHAR C0169
ENCODING 169
SWIDTH 991 0
DWIDTH 37 0
BBX 31 31 3 -3
BITMAP
001FF000
007FFC00
01F01F00
03800380
070001C0
0C000060
18000030
3807E038
303FFC18
607FFC0C
60F81C0C
E0E0040E
C1E00006
C1C00006
C1C00006
C1C00006
C1C00006
C1C00006
C1E00006
E0E0040E
60F81C0C
607FFC0C
303FFC18
380FE038
18000030
0C000060
070001C0
03800380
01F01F00
007FFC00
001FF000
ENDCHAR
STARTCHAR C0170
ENCODING 170
SWIDTH 669 0
DWIDTH 25 0
BBX 21 35 2 -7
BITMAP
03FF00
0FFFE0
1FFFF0
3E03F0
780070
F80010
F00000
F00000
F00000
F00000
F80000
7F0000
3FF800
1FFF80
07FFE0
007FF0
0003F0
0000F8
000078
000078
000078
800078
C000F0
F001F0
FE03E0
FFFFC0
3FFF00
07FC00
001C00
001C00
001C00
083C00
0FF800
0FF000
0FE000
ENDCHAR
STARTCHAR C0171
ENCODING 171
SWIDTH 642 0
DWIDTH 24 0
BBX 18 18 3 3
BITMAP
004000
00C040
01C0C0
03C1C0
0F87C0
1F0F00
3C3E00
787800
F0F000
F0F000
787800
3C3E00
1F0F00
0787C0
03C1C0
01C0C0
00C040
004000
ENDCHAR
STARTCHAR C0172
ENCODING 172
SWIDTH 803 0
DWIDTH 30 0
BBX 23 13 4 1
BITMAP
FFFFFE
FFFFFE
FFFFFE
00000E
00000E
00000E
00000E
00000E
00000E
00000E
00000E
00000E
00000E
ENDCHAR
STARTCHAR C0173
ENCODING 173
SWIDTH 455 0
DWIDTH 17 0
BBX 11 3 3 10
BITMAP
FFE0
FFE0
FFE0
ENDCHAR
STARTCHAR C0174
ENCODING 174
SWIDTH 991 0
DWIDTH 37 0
BBX 31 31 3 -3
BITMAP
001FF000
007FFC00
01F01F00
03800380
070001C0
0C000060
18000030
383FF038
303FFC18
60381E0C
60380E0C
E0380E0E
C0380E06
C0380E06
C0383C06
C03FF806
C03FE006
C038F006
C0387806
E0383C0E
60381E0C
60380F0C
303807D8
38000038
18000030
0C000060
070001C0
03800380
01F01F00
007FFC00
001FF000
ENDCHAR
STARTCHAR C0175
ENCODING 175
SWIDTH 669 0
DWIDTH 25 0
BBX 21 35 2 0
BITMAP
007800
007800
007800
007800
000000
000000
000000
000000
7FFFF8
7FFFF8
7FFFF8
0000F8
0001F0
0003E0
0007C0
0007C0
000F80
001F00
003E00
003C00
007C00
00F800
01F000
01E000
03E000
07C000
0F8000
1F0000
1E0000
3E0000
7C0000
F80000
FFFFF8
FFFFF8
FFFFF8
ENDCHAR
STARTCHAR C0176
ENCODING 176
SWIDTH 535 0
DWIDTH 20 0
BBX 14 14 3 14
BITMAP
0FC0
1FE0
3FF0
7878
F03C
E01C
E01C
E01C
E01C
F03C
7878
3FF0
1FE0
0FC0
ENDCHAR
STARTCHAR C0177
ENCODING 177
SWIDTH 803 0
DWIDTH 30 0
BBX 23 23 4 4
BITMAP
003800
003800
003800
003800
003800
003800
003800
003800
003800
003800
FFFFFE
FFFFFE
FFFFFE
003800
003800
003800
003800
003800
003800
003800
FFFFFE
FFFFFE
FFFFFE
ENDCHAR
STARTCHAR C0178
ENCODING 178
SWIDTH 642 0
DWIDTH 24 0
BBX 9 7 8 -7
BITMAP
E000
E000
E000
F080
7F80
7F80
1F80
ENDCHAR
STARTCHAR C0179
ENCODING 179
SWIDTH 267 0
DWIDTH 10 0
BBX 10 28 0 0
BITMAP
1E00
1E00
1E00
1E00
1E00
1E00
1E00
1E00
1E00
1E40
1EC0
1FC0
1F80
1F00
1E00
3E00
7E00
FE00
DE00
9E00
1E00
1E00
1E00
1E00
1E00
1E00
1E00
1E00
ENDCHAR
STARTCHAR C0180
ENCODING 180
SWIDTH 642 0
DWIDTH 24 0
BBX 8 7 10 24
BITMAP
1F
1E
3C
38
78
70
E0
ENDCHAR
STARTCHAR C0181
ENCODING 181
SWIDTH 642 0
DWIDTH 24 0
BBX 18 27 3 -7
BITMAP
F003C0
F003C0
F003C0
F003C0
F003C0
F003C0
F003C0
F003C0
F003C0
F003C0
F003C0
F003C0
F003C0
F003C0
F003C0
F807C0
FC0FC0
FFFFC0
F7FBC0
F1E3C0
F00000
F00000
F00000
F00000
F00000
F00000
F00000
ENDCHAR
STARTCHAR C0182
ENCODING 182
SWIDTH 642 0
DWIDTH 24 0
BBX 18 34 2 -7
BITMAP
07FFC0
1FFFC0
3FE1C0
7FE1C0
7FE1C0
FFE1C0
FFE1C0
FFE1C0
FFE1C0
FFE1C0
FFE1C0
7FE1C0
7FE1C0
3FE1C0
1FE1C0
07E1C0
00E1C0
00E1C0
00E1C0
00E1C0
00E1C0
00E1C0
00E1C0
00E1C0
00E1C0
00E1C0
00E1C0
00E1C0
00E1C0
00E1C0
00E1C0
00E1C0
00E1C0
00E1C0
ENDCHAR
STARTCHAR C0183
ENCODING 183
SWIDTH 348 0
DWIDTH 13 0
BBX 4 5 5 9
BITMAP
F0
F0
F0
F0
F0
ENDCHAR
STARTCHAR C0184
ENCODING 184
SWIDTH 642 0
DWIDTH 24 0
BBX 10 7 6 -7
BITMAP
01C0
01C0
01C0
83C0
FF80
FF00
FE00
ENDCHAR
STARTCHAR C0185
ENCODING 185
SWIDTH 589 0
DWIDTH 22 0
BBX 22 28 2 -7
BITMAP
0FF800
3FFE00
3FFF00
301F00
000F80
000780
000780
01FF80
0FFF80
3FFF80
7F0780
780780
F00780
F00780
F00780
F00780
F00F80
783F80
7FFF80
3FE780
0F8780
000700
000700
000700
000784
0003FC
0003FC
0000FC
ENDCHAR
STARTCHAR C0186
ENCODING 186
SWIDTH 508 0
DWIDTH 19 0
BBX 15 28 2 -7
BITMAP
0FE0
3FFC
7FFC
781C
F004
F000
F000
F800
FE00
7FE0
3FF8
0FFC
007E
003E
001E
801E
C01E
F03C
FFFC
7FF0
1FE0
00E0
00E0
00E0
41E0
7FC0
7F80
7F00
ENDCHAR
STARTCHAR C0187
ENCODING 187
SWIDTH 642 0
DWIDTH 24 0
BBX 18 18 3 3
BITMAP
008000
80C000
C0E000
E0F000
F87C00
3C3E00
1F0F00
078780
03C3C0
03C3C0
078780
1F0F00
3C3E00
F87800
E0F000
C0E000
80C000
008000
ENDCHAR
STARTCHAR C0188
ENCODING 188
SWIDTH 562 0
DWIDTH 21 0
BBX 17 28 4 0
BITMAP
003C00
F07800
F07800
F07000
F0F000
F0E000
F0E000
F1C000
F1C000
F00000
F00000
F00000
F00000
F00000
F00000
F00000
F00000
F00000
F00000
F00000
F00000
F00000
F00000
F00000
F00000
FFFF80
FFFF80
FFFF80
ENDCHAR
STARTCHAR C0189
ENCODING 189
SWIDTH 642 0
DWIDTH 24 0
BBX 14 7 6 24
BITMAP
1E3C
3C78
3870
78F0
70E0
60C0
E1C0
ENDCHAR
STARTCHAR C0190
ENCODING 190
SWIDTH 294 0
DWIDTH 11 0
BBX 13 28 3 0
BITMAP
F078
F0F0
F0F0
F0E0
F1E0
F1C0
F1C0
F380
F380
F000
F000
F000
F000
F000
F000
F000
F000
F000
F000
F000
F000
F000
F000
F000
F000
F000
F000
F000
ENDCHAR
STARTCHAR C0191
ENCODING 191
SWIDTH 508 0
DWIDTH 19 0
BBX 15 28 2 0
BITMAP
03C0
03C0
03C0
03C0
0000
0000
0000
0000
FFFE
FFFE
FFFE
001E
003C
0078
00F0
01E0
01E0
03C0
0780
0F00
0E00
1E00
3C00
7800
F000
FFFE
FFFE
FFFE
ENDCHAR
STARTCHAR C0192
ENCODING 192
SWIDTH 696 0
DWIDTH 26 0
BBX 22 38 4 0
BITMAP
003E00
003C00
007800
007000
00F000
00E000
01C000
000000
000000
000000
000000
FFF800
FFFE00
FFFF00
F00F80
F007C0
F003C0
F003C0
F003C0
F003C0
F003C0
F00780
F00780
F01F00
FFFE00
FFF800
FFF800
F07C00
F03C00
F03E00
F01F00
F00F80
F007C0
F003C0
F003E0
F001F0
F000F8
F0007C
ENDCHAR
STARTCHAR C0193
ENCODING 193
SWIDTH 669 0
DWIDTH 25 0
BBX 25 38 0 0
BITMAP
0007C000
00078000
000F0000
000E0000
001E0000
001C0000
00380000
00000000
00000000
00000000
00000000
003E0000
007F0000
007F0000
007F0000
00F78000
00F78000
00F78000
01E3C000
01E3C000
01E3C000
03C1E000
03C1E000
07C1F000
0780F000
0780F000
0F007800
0FFFF800
0FFFF800
1FFFFC00
1E003C00
3E003E00
3C001E00
3C001E00
7C001F00
78000F00
78000F00
F0000780
ENDCHAR
STARTCHAR C0194
ENCODING 194
SWIDTH 669 0
DWIDTH 25 0
BBX 25 37 0 0
BITMAP
001E0000
003F0000
003F0000
00738000
00E3C000
00E1C000
01C0E000
00000000
00000000
00000000
003E0000
007F0000
007F0000
007F0000
00F78000
00F78000
00F78000
01E3C000
01E3C000
01E3C000
03C1E000
03C1E000
07C1F000
0780F000
0780F000
0F007800
0FFFF800
0FFFF800
1FFFFC00
1E003C00
3E003E00
3C001E00
3C001E00
7C001F00
78000F00
78000F00
F0000780
ENDCHAR
STARTCHAR C0195
ENCODING 195
SWIDTH 669 0
DWIDTH 25 0
BBX 25 37 0 0
BITMAP
03807000
03807000
03C0F000
01C0E000
00E1C000
007F8000
003F0000
00000000
00000000
00000000
003E0000
007F0000
007F0000
007F0000
00F78000
00F78000
00F78000
01E3C000
01E3C000
01E3C000
03C1E000
03C1E000
07C1F000
0780F000
0780F000
0F007800
0FFFF800
0FFFF800
1FFFFC00
1E003C00
3E003E00
3C001E00
3C001E00
7C001F00
78000F00
78000F00
F0000780
ENDCHAR
STARTCHAR C0196
ENCODING 196
SWIDTH 669 0
DWIDTH 25 0
BBX 25 35 0 0
BITMAP
01E3C000
01E3C000
01E3C000
01E3C000
00000000
00000000
00000000
00000000
003E0000
007F0000
007F0000
007F0000
00F78000
00F78000
00F78000
01E3C000
01E3C000
01E3C000
03C1E000
03C1E000
07C1F000
0780F000
0780F000
0F007800
0FFFF800
0FFFF800
1FFFFC00
1E003C00
3E003E00
3C001E00
3C001E00
7C001F00
78000F00
78000F00
F0000780
ENDCHAR
STARTCHAR C0197
ENCODING 197
SWIDTH 562 0
DWIDTH 21 0
BBX 17 38 4 0
BITMAP
0F8000
0F0000
1E0000
1C0000
3C0000
380000
700000
000000
000000
000000
000000
F00000
F00000
F00000
F00000
F00000
F00000
F00000
F00000
F00000
F00000
F00000
F00000
F00000
F00000
F00000
F00000
F00000
F00000
F00000
F00000
F00000
F00000
F00000
F00000
FFFF80
FFFF80
FFFF80
ENDCHAR
STARTCHAR C0198
ENCODING 198
SWIDTH 696 0
DWIDTH 26 0
BBX 23 38 2 0
BITMAP
0007C0
000780
000F00
000E00
001E00
001C00
003800
000000
000000
000000
007FC0
01FFF8
07FFFE
0FC07E
1F001E
3E0006
3C0002
780000
780000
780000
F00000
F00000
F00000
F00000
F00000
F00000
F00000
F00000
F80000
780000
780000
3C0002
3E0006
1F001E
0FC07E
07FFFE
03FFF8
007FC0
ENDCHAR
STARTCHAR C0199
ENCODING 199
SWIDTH 696 0
DWIDTH 26 0
BBX 23 35 2 -7
BITMAP
007FC0
01FFF8
07FFFE
0FC07E
1F001E
3E0006
3C0002
780000
780000
780000
F00000
F00000
F00000
F00000
F00000
F00000
F00000
F00000
F80000
780000
780000
3C0002
3E0006
1F001E
0FC07E
07FFFE
03FFF8
007FC0
0001C0
0001C0
0001C0
0083C0
00FF80
00FF00
00FE00
ENDCHAR
STARTCHAR C0200
ENCODING 200
SWIDTH 696 0
DWIDTH 26 0
BBX 23 37 2 0
BITMAP
01C0E0
00E1C0
00F1C0
007380
003F00
003F00
001E00
000000
000000
007FC0
01FFF8
07FFFE
0FC07E
1F001E
3E0006
3C0002
780000
780000
780000
F00000
F00000
F00000
F00000
F00000
F00000
F00000
F00000
F80000
780000
780000
3C0002
3E0006
1F001E
0FC07E
07FFFE
03FFF8
007FC0
ENDCHAR
STARTCHAR C0201
ENCODING 201
SWIDTH 616 0
DWIDTH 23 0
BBX 17 38 4 0
BITMAP
007C00
007800
00F000
00E000
01E000
01C000
038000
000000
000000
000000
000000
FFFF80
FFFF80
FFFF80
F00000
F00000
F00000
F00000
F00000
F00000
F00000
F00000
FFFF80
FFFF80
FFFF80
F00000
F00000
F00000
F00000
F00000
F00000
F00000
F00000
F00000
F00000
FFFF80
FFFF80
FFFF80
ENDCHAR
STARTCHAR C0202
ENCODING 202
SWIDTH 616 0
DWIDTH 23 0
BBX 19 34 4 -7
BITMAP
FFFF80
FFFF80
FFFF80
F00000
F00000
F00000
F00000
F00000
F00000
F00000
F00000
FFFF80
FFFF80
FFFF80
F00000
F00000
F00000
F00000
F00000
F00000
F00000
F00000
F00000
F00000
FFFF80
FFFF80
FFFF80
003800
003800
003800
003C20
001FE0
001FE0
0007E0
ENDCHAR
STARTCHAR C0203
ENCODING 203
SWIDTH 616 0
DWIDTH 23 0
BBX 17 35 4 0
BITMAP
1E3C00
1E3C00
1E3C00
1E3C00
000000
000000
000000
000000
FFFF80
FFFF80
FFFF80
F00000
F00000
F00000
F00000
F00000
F00000
F00000
F00000
FFFF80
FFFF80
FFFF80
F00000
F00000
F00000
F00000
F00000
F00000
F00000
F00000
F00000
F00000
FFFF80
FFFF80
FFFF80
ENDCHAR
STARTCHAR C0204
ENCODING 204
SWIDTH 616 0
DWIDTH 23 0
BBX 17 37 4 0
BITMAP
1C0E00
0E1C00
0F1C00
073800
03F000
03F000
01E000
000000
000000
000000
FFFF80
FFFF80
FFFF80
F00000
F00000
F00000
F00000
F00000
F00000
F00000
F00000
FFFF80
FFFF80
FFFF80
F00000
F00000
F00000
F00000
F00000
F00000
F00000
F00000
F00000
F00000
FFFF80
FFFF80
FFFF80
ENDCHAR
STARTCHAR C0205
ENCODING 205
SWIDTH 428 0
DWIDTH 16 0
BBX 12 38 2 0
BITMAP
03E0
03C0
0780
0700
0F00
0E00
1C00
0000
0000
0000
0000
FFF0
FFF0
FFF0
0F00
0F00
0F00
0F00
0F00
0F00
0F00
0F00
0F00
0F00
0F00
0F00
0F00
0F00
0F00
0F00
0F00
0F00
0F00
0F00
0F00
FFF0
FFF0
FFF0
ENDCHAR
STARTCHAR C0206
ENCODING 206
SWIDTH 428 0
DWIDTH 16 0
BBX 12 37 2 0
BITMAP
0F00
1F80
1F80
39C0
71E0
70E0
E070
0000
0000
0000
FFF0
FFF0
FFF0
0F00
0F00
0F00
0F00
0F00
0F00
0F00
0F00
0F00
0F00
0F00
0F00
0F00
0F00
0F00
0F00
0F00
0F00
0F00
0F00
0F00
FFF0
FFF0
FFF0
ENDCHAR
STARTCHAR C0207
ENCODING 207
SWIDTH 776 0
DWIDTH 29 0
BBX 23 37 4 0
BITMAP
0E0700
070E00
078E00
039C00
01F800
01F800
00F000
000000
000000
000000
FFF800
FFFF00
FFFFC0
F00FE0
F001F0
F000F8
F00078
F0003C
F0003C
F0003E
F0001E
F0001E
F0001E
F0001E
F0001E
F0001E
F0001E
F0003C
F0003C
F0003C
F00078
F000F8
F001F0
F00FE0
FFFFC0
FFFF00
FFF800
ENDCHAR
STARTCHAR C0208
ENCODING 208
SWIDTH 776 0
DWIDTH 29 0
BBX 27 27 0 0
BITMAP
0FFF8000
0FFFF000
0FFFFC00
0F00FE00
0F001F00
0F000F80
0F000780
0F0003C0
0F0003C0
0F0003E0
0F0001E0
FFFC01E0
FFFC01E0
FFFC01E0
0F0001E0
0F0001E0
0F0001E0
0F0003C0
0F0003C0
0F0003C0
0F000780
0F000F80
0F001F00
0F00FE00
0FFFFC00
0FFFF000
0FFF8000
ENDCHAR
STARTCHAR C0209
ENCODING 209
SWIDTH 750 0
DWIDTH 28 0
BBX 20 38 4 0
BITMAP
000F80
000F00
001E00
001C00
003C00
003800
007000
000000
000000
000000
000000
FC00F0
FE00F0
FE00F0
FF00F0
F700F0
F700F0
F380F0
F380F0
F1C0F0
F1C0F0
F0E0F0
F0E0F0
F0F0F0
F070F0
F078F0
F038F0
F038F0
F01CF0
F01CF0
F00EF0
F00EF0
F007F0
F007F0
F007F0
F003F0
F003F0
F001F0
ENDCHAR
STARTCHAR C0210
ENCODING 210
SWIDTH 750 0
DWIDTH 28 0
BBX 20 37 4 0
BITMAP
0E0700
070E00
078E00
039C00
01F800
01F800
00F000
000000
000000
000000
FC00F0
FE00F0
FE00F0
FF00F0
F700F0
F700F0
F380F0
F380F0
F1C0F0
F1C0F0
F0E0F0
F0E0F0
F0F0F0
F070F0
F078F0
F038F0
F038F0
F01CF0
F01CF0
F00EF0
F00EF0
F007F0
F007F0
F007F0
F003F0
F003F0
F001F0
ENDCHAR
STARTCHAR C0211
ENCODING 211
SWIDTH 776 0
DWIDTH 29 0
BBX 25 38 2 0
BITMAP
0007C000
00078000
000F0000
000E0000
001E0000
001C0000
00380000
00000000
00000000
00000000
007F0000
03FFE000
07FFF000
0F80F800
1F007C00
3E003E00
3C001E00
78000F00
78000F00
F8000F80
F0000780
F0000780
F0000780
F0000780
F0000780
F0000780
F0000780
F0000780
F8000F80
78000F00
78000F00
3C001E00
3E003E00
1F007C00
0FC1F800
07FFF000
03FFE000
007F0000
ENDCHAR
STARTCHAR C0212
ENCODING 212
SWIDTH 776 0
DWIDTH 29 0
BBX 25 37 2 0
BITMAP
001E0000
003F0000
003F0000
00738000
00E3C000
00E1C000
01C0E000
00000000
00000000
007F0000
03FFE000
07FFF000
0F80F800
1F007C00
3E003E00
3C001E00
78000F00
78000F00
F8000F80
F0000780
F0000780
F0000780
F0000780
F0000780
F0000780
F0000780
F0000780
F8000F80
78000F00
78000F00
3C001E00
3E003E00
1F007C00
0FC1F800
07FFF000
03FFE000
007F0000
ENDCHAR
STARTCHAR C0213
ENCODING 213
SWIDTH 776 0
DWIDTH 29 0
BBX 25 38 2 0
BITMAP
001E3C00
003C7800
00387000
0078F000
0070E000
0060C000
00E1C000
00000000
00000000
00000000
007F0000
03FFE000
07FFF000
0F80F800
1F007C00
3E003E00
3C001E00
78000F00
78000F00
F8000F80
F0000780
F0000780
F0000780
F0000780
F0000780
F0000780
F0000780
F0000780
F8000F80
78000F00
78000F00
3C001E00
3E003E00
1F007C00
0FC1F800
07FFF000
03FFE000
007F0000
ENDCHAR
STARTCHAR C0214
ENCODING 214
SWIDTH 776 0
DWIDTH 29 0
BBX 25 35 2 0
BITMAP
01E3C000
01E3C000
01E3C000
01E3C000
00000000
00000000
00000000
007F0000
03FFE000
07FFF000
0F80F800
1F007C00
3E003E00
3C001E00
78000F00
78000F00
F8000F80
F0000780
F0000780
F0000780
F0000780
F0000780
F0000780
F0000780
F0000780
F8000F80
78000F00
78000F00
3C001E00
3E003E00
1F007C00
0FC1F800
07FFF000
03FFE000
007F0000
ENDCHAR
STARTCHAR C0215
ENCODING 215
SWIDTH 803 0
DWIDTH 30 0
BBX 19 19 6 2
BITMAP
400040
E000E0
F001C0
380380
1C0700
0E0E00
071C00
03B800
01F000
00E000
01F000
03B800
071C00
0E0E00
1C0700
380380
F001C0
E000E0
6000C0
ENDCHAR
STARTCHAR C0216
ENCODING 216
SWIDTH 696 0
DWIDTH 26 0
BBX 22 37 4 0
BITMAP
381C00
1C3800
1E3800
0E7000
07E000
07E000
03C000
000000
000000
000000
FFF800
FFFE00
FFFF00
F00F80
F007C0
F003C0
F003C0
F003C0
F003C0
F003C0
F00780
F00780
F01F00
FFFE00
FFF800
FFF800
F07C00
F03C00
F03E00
F01F00
F00F80
F007C0
F003C0
F003E0
F001F0
F000F8
F0007C
ENDCHAR
STARTCHAR C0217
ENCODING 217
SWIDTH 723 0
DWIDTH 27 0
BBX 21 36 3 0
BITMAP
00F800
03FE00
078F00
070700
0E0380
0E0380
0E0380
0E0380
070700
F78F78
F3FE78
F0F878
F00078
F00078
F00078
F00078
F00078
F00078
F00078
F00078
F00078
F00078
F00078
F00078
F00078
F00078
F00078
F00078
F00078
7800F0
7800F0
7C01F0
3F07E0
1FFFC0
0FFF80
01FC00
ENDCHAR
STARTCHAR C0218
ENCODING 218
SWIDTH 723 0
DWIDTH 27 0
BBX 21 38 3 0
BITMAP
000F80
000F00
001E00
001C00
003C00
003800
007000
000000
000000
000000
000000
F00078
F00078
F00078
F00078
F00078
F00078
F00078
F00078
F00078
F00078
F00078
F00078
F00078
F00078
F00078
F00078
F00078
F00078
F00078
F00078
7800F0
7800F0
7C01F0
3F07E0
1FFFC0
0FFF80
01FC00
ENDCHAR
STARTCHAR C0219
ENCODING 219
SWIDTH 723 0
DWIDTH 27 0
BBX 21 38 3 0
BITMAP
0078F0
00F1E0
00E1C0
01E3C0
01C380
018300
038700
000000
000000
000000
000000
F00078
F00078
F00078
F00078
F00078
F00078
F00078
F00078
F00078
F00078
F00078
F00078
F00078
F00078
F00078
F00078
F00078
F00078
F00078
F00078
7800F0
7800F0
7C01F0
3F07E0
1FFFC0
0FFF80
01FC00
ENDCHAR
STARTCHAR C0220
ENCODING 220
SWIDTH 723 0
DWIDTH 27 0
BBX 21 35 3 0
BITMAP
078F00
078F00
078F00
078F00
000000
000000
000000
000000
F00078
F00078
F00078
F00078
F00078
F00078
F00078
F00078
F00078
F00078
F00078
F00078
F00078
F00078
F00078
F00078
F00078
F00078
F00078
F00078
7800F0
7800F0
7C01F0
3F07E0
1FFFC0
0FFF80
01FC00
ENDCHAR
STARTCHAR C0221
ENCODING 221
SWIDTH 616 0
DWIDTH 23 0
BBX 24 38 0 0
BITMAP
0003E0
0003C0
000780
000700
000F00
000E00
001C00
000000
000000
000000
000000
F8001F
7C003E
3C003C
3E007C
1E0078
0F00F0
0F81F0
0781E0
07C3C0
03C3C0
01E780
01FF00
00FF00
007E00
007C00
003C00
003C00
003C00
003C00
003C00
003C00
003C00
003C00
003C00
003C00
003C00
003C00
ENDCHAR
STARTCHAR C0222
ENCODING 222
SWIDTH 616 0
DWIDTH 23 0
BBX 24 34 0 -7
BITMAP
FFFFFF
FFFFFF
FFFFFF
003C00
003C00
003C00
003C00
003C00
003C00
003C00
003C00
003C00
003C00
003C00
003C00
003C00
003C00
003C00
003C00
003C00
003C00
003C00
003C00
003C00
003C00
003C00
003C00
001C00
001C00
001C00
083C00
0FF800
0FF000
0FE000
ENDCHAR
STARTCHAR C0223
ENCODING 223
SWIDTH 616 0
DWIDTH 23 0
BBX 18 28 3 0
BITMAP
07F000
1FFC00
3FFE00
7C1F00
780F00
F80F00
F00F00
F00F00
F01E00
F03C00
F1F800
F1F000
F1FE00
F03F00
F00F80
F00780
F003C0
F003C0
F003C0
F003C0
F003C0
F003C0
F00780
F00780
F21F00
F3FF00
F3FC00
F3F000
ENDCHAR
STARTCHAR C0224
ENCODING 224
SWIDTH 428 0
DWIDTH 16 0
BBX 13 31 3 0
BITMAP
03E0
03C0
0780
0700
0F00
0E00
1C00
0000
0000
0000
0000
F0F8
F3F8
F7F8
FE00
F800
F000
F000
F000
F000
F000
F000
F000
F000
F000
F000
F000
F000
F000
F000
F000
ENDCHAR
STARTCHAR C0225
ENCODING 225
SWIDTH 589 0
DWIDTH 22 0
BBX 17 31 2 0
BITMAP
001F00
001E00
003C00
003800
007800
007000
00E000
000000
000000
000000
0FF800
3FFE00
3FFF00
301F00
000F80
000780
000780
01FF80
0FFF80
3FFF80
7F0780
780780
F00780
F00780
F00780
F00780
F00F80
783F80
7FFF80
3FE780
0F8780
ENDCHAR
STARTCHAR C0226
ENCODING 226
SWIDTH 589 0
DWIDTH 22 0
BBX 17 30 2 0
BITMAP
00F000
01F800
01F800
039C00
071E00
070E00
0E0700
000000
000000
0FF800
3FFE00
3FFF00
301F00
000F80
000780
000780
01FF80
0FFF80
3FFF80
7F0780
780780
F00780
F00780
F00780
F00780
F00F80
783F80
7FFF80
3FE780
0F8780
ENDCHAR
STARTCHAR C0227
ENCODING 227
SWIDTH 589 0
DWIDTH 22 0
BBX 17 30 2 0
BITMAP
380700
380700
3C0F00
1C0E00
0E1C00
07F800
03F000
000000
000000
0FF800
3FFE00
3FFF00
301F00
000F80
000780
000780
01FF80
0FFF80
3FFF80
7F0780
780780
F00780
F00780
F00780
F00780
F00F80
783F80
7FFF80
3FE780
0F8780
ENDCHAR
STARTCHAR C0228
ENCODING 228
SWIDTH 589 0
DWIDTH 22 0
BBX 17 28 2 0
BITMAP
0F1E00
0F1E00
0F1E00
0F1E00
000000
000000
000000
0FF800
3FFE00
3FFF00
301F00
000F80
000780
000780
01FF80
0FFF80
3FFF80
7F0780
780780
F00780
F00780
F00780
F00780
F00F80
783F80
7FFF80
3FE780
0F8780
ENDCHAR
STARTCHAR C0229
ENCODING 229
SWIDTH 267 0
DWIDTH 10 0
BBX 9 38 3 0
BITMAP
0F80
0F00
1E00
1C00
3C00
3800
7000
0000
0000
0000
F000
F000
F000
F000
F000
F000
F000
F000
F000
F000
F000
F000
F000
F000
F000
F000
F000
F000
F000
F000
F000
F000
F000
F000
F000
F000
F000
F000
ENDCHAR
STARTCHAR C0230
ENCODING 230
SWIDTH 508 0
DWIDTH 19 0
BBX 16 31 2 0
BITMAP
003E
003C
0078
0070
00F0
00E0
01C0
0000
0000
0000
03F8
0FFF
1FFF
3E07
7C01
7800
7800
F000
F000
F000
F000
F000
F000
F000
F800
7800
7C01
3E07
1FFF
0FFF
03F8
ENDCHAR
STARTCHAR C0231
ENCODING 231
SWIDTH 508 0
DWIDTH 19 0
BBX 16 28 2 -7
BITMAP
03F8
0FFF
1FFF
3E07
7C01
7800
7800
F000
F000
F000
F000
F000
F000
F000
F800
7800
7C01
3E07
1FFF
0FFF
03FC
001C
001C
001C
083C
0FF8
0FF0
0FE0
ENDCHAR
STARTCHAR C0232
ENCODING 232
SWIDTH 508 0
DWIDTH 19 0
BBX 16 30 2 0
BITMAP
1C0E
0E1C
0F1C
0738
03F0
03F0
01E0
0000
0000
03F8
0FFF
1FFF
3E07
7C01
7800
7800
F000
F000
F000
F000
F000
F000
F000
F800
7800
7C01
3E07
1FFF
0FFF
03F8
ENDCHAR
STARTCHAR C0233
ENCODING 233
SWIDTH 589 0
DWIDTH 22 0
BBX 18 31 2 0
BITMAP
001F00
001E00
003C00
003800
007800
007000
00E000
000000
000000
000000
03F800
0FFE00
1FFF00
3E0F80
7C0780
7803C0
7003C0
F003C0
FFFFC0
FFFFC0
FFFFC0
F00000
F00000
F00000
780000
780000
7C0040
3F03C0
1FFFC0
0FFFC0
01FE00
ENDCHAR
STARTCHAR C0234
ENCODING 234
SWIDTH 589 0
DWIDTH 22 0
BBX 18 28 2 -7
BITMAP
03F800
0FFE00
1FFF00
3E0F80
7C0780
7803C0
7003C0
F003C0
FFFFC0
FFFFC0
FFFFC0
F00000
F00000
F00000
F80000
780000
7C0040
3F03C0
1FFFC0
0FFFC0
03FE00
007000
007000
007000
007840
003FC0
003FC0
000FC0
ENDCHAR
STARTCHAR C0235
ENCODING 235
SWIDTH 589 0
DWIDTH 22 0
BBX 18 28 2 0
BITMAP
0F1E00
0F1E00
0F1E00
0F1E00
000000
000000
000000
03F800
0FFE00
1FFF00
3E0F80
7C0780
7803C0
7003C0
F003C0
FFFFC0
FFFFC0
FFFFC0
F00000
F00000
F00000
780000
780000
7C0040
3F03C0
1FFFC0
0FFFC0
01FE00
ENDCHAR
STARTCHAR C0236
ENCODING 236
SWIDTH 589 0
DWIDTH 22 0
BBX 18 30 2 0
BITMAP
1C0E00
0E1C00
0F1C00
073800
03F000
03F000
01E000
000000
000000
03F800
0FFE00
1FFF00
3E0F80
7C0780
7803C0
7003C0
F003C0
FFFFC0
FFFFC0
FFFFC0
F00000
F00000
F00000
780000
780000
7C0040
3F03C0
1FFFC0
0FFFC0
01FE00
ENDCHAR
STARTCHAR C0237
ENCODING 237
SWIDTH 267 0
DWIDTH 10 0
BBX 8 31 2 0
BITMAP
1F
1E
3C
38
78
70
E0
00
00
00
00
78
78
78
78
78
78
78
78
78
78
78
78
78
78
78
78
78
78
78
78
ENDCHAR
STARTCHAR C0238
ENCODING 238
SWIDTH 267 0
DWIDTH 10 0
BBX 12 30 -1 0
BITMAP
1F80
1F80
3FC0
39C0
79E0
70E0
E070
0000
0000
0000
0F00
0F00
0F00
0F00
0F00
0F00
0F00
0F00
0F00
0F00
0F00
0F00
0F00
0F00
0F00
0F00
0F00
0F00
0F00
0F00
ENDCHAR
STARTCHAR C0239
ENCODING 239
SWIDTH 642 0
DWIDTH 24 0
BBX 27 28 2 0
BITMAP
0003C1E0
0003C3C0
0003C3C0
0003C380
0003C780
0003C700
0003C700
03F3CE00
0FFFCE00
1FFFC000
3E07C000
7C03C000
7803C000
7803C000
F003C000
F003C000
F003C000
F003C000
F003C000
F003C000
F003C000
F003C000
7803C000
7807C000
3E1FC000
3FFFC000
1FF3C000
07E3C000
ENDCHAR
STARTCHAR C0240
ENCODING 240
SWIDTH 616 0
DWIDTH 23 0
BBX 21 28 2 0
BITMAP
0003C0
0003C0
0003C0
01FFF8
01FFF8
0003C0
0003C0
03F3C0
0FFFC0
1FFFC0
3E07C0
7C03C0
7803C0
7803C0
F003C0
F003C0
F003C0
F003C0
F003C0
F003C0
F003C0
F003C0
7803C0
7807C0
3E1FC0
3FFFC0
1FF3C0
07E3C0
ENDCHAR
STARTCHAR C0241
ENCODING 241
SWIDTH 616 0
DWIDTH 23 0
BBX 17 31 3 0
BITMAP
003E00
003C00
007800
007000
00F000
00E000
01C000
000000
000000
000000
00F800
F3FE00
FFFF00
FE1F00
F80F80
F00780
F00780
F00780
F00780
F00780
F00780
F00780
F00780
F00780
F00780
F00780
F00780
F00780
F00780
F00780
F00780
ENDCHAR
STARTCHAR C0242
ENCODING 242
SWIDTH 616 0
DWIDTH 23 0
BBX 17 30 3 0
BITMAP
1C0E00
0E1C00
0F1C00
073800
03F000
03F000
01E000
000000
000000
00F800
F3FE00
FFFF00
FE1F00
F80F80
F00780
F00780
F00780
F00780
F00780
F00780
F00780
F00780
F00780
F00780
F00780
F00780
F00780
F00780
F00780
F00780
ENDCHAR
STARTCHAR C0243
ENCODING 243
SWIDTH 589 0
DWIDTH 22 0
BBX 18 31 2 0
BITMAP
007C00
007800
00F000
00E000
01E000
01C000
038000
000000
000000
000000
03F000
0FFC00
1FFE00
3E1F00
7C0F80
780780
780780
F003C0
F003C0
F003C0
F003C0
F003C0
F003C0
F003C0
780780
780780
7C0F80
3E1F00
1FFE00
0FFC00
03F000
ENDCHAR
STARTCHAR C0244
ENCODING 244
SWIDTH 589 0
DWIDTH 22 0
BBX 18 30 2 0
BITMAP
01E000
03F000
03F000
073800
0E3C00
0E1C00
1C0E00
000000
000000
03F000
0FFC00
1FFE00
3E1F00
7C0F80
780780
780780
F003C0
F003C0
F003C0
F003C0
F003C0
F003C0
F003C0
780780
780780
7C0F80
3E1F00
1FFE00
0FFC00
03F000
ENDCHAR
STARTCHAR C0245
ENCODING 245
SWIDTH 589 0
DWIDTH 22 0
BBX 18 31 2 0
BITMAP
01E3C0
03C780
038700
078F00
070E00
060C00
0E1C00
000000
000000
000000
03F000
0FFC00
1FFE00
3E1F00
7C0F80
780780
780780
F003C0
F003C0
F003C0
F003C0
F003C0
F003C0
F003C0
780780
780780
7C0F80
3E1F00
1FFE00
0FFC00
03F000
ENDCHAR
STARTCHAR C0246
ENCODING 246
SWIDTH 589 0
DWIDTH 22 0
BBX 18 28 2 0
BITMAP
0F1E00
0F1E00
0F1E00
0F1E00
000000
000000
000000
03F000
0FFC00
1FFE00
3E1F00
7C0F80
780780
780780
F003C0
F003C0
F003C0
F003C0
F003C0
F003C0
F003C0
780780
780780
7C0F80
3E1F00
1FFE00
0FFC00
03F000
ENDCHAR
STARTCHAR C0247
ENCODING 247
SWIDTH 803 0
DWIDTH 30 0
BBX 24 23 3 0
BITMAP
003C00
003C00
003C00
003C00
003C00
000000
000000
000000
000000
000000
FFFFFF
FFFFFF
FFFFFF
000000
000000
000000
000000
000000
003C00
003C00
003C00
003C00
003C00
ENDCHAR
STARTCHAR C0248
ENCODING 248
SWIDTH 428 0
DWIDTH 16 0
BBX 13 30 3 0
BITMAP
E070
70E0
78E0
39C0
1F80
1F80
0F00
0000
0000
0000
F0F8
F3F8
F7F8
FE00
F800
F000
F000
F000
F000
F000
F000
F000
F000
F000
F000
F000
F000
F000
F000
F000
ENDCHAR
STARTCHAR C0249
ENCODING 249
SWIDTH 616 0
DWIDTH 23 0
BBX 17 35 3 0
BITMAP
03E000
0FF800
1E3C00
1C1C00
380E00
380E00
380E00
380E00
1C1C00
1E3C00
0FF800
03E000
000000
000000
000000
F00780
F00780
F00780
F00780
F00780
F00780
F00780
F00780
F00780
F00780
F00780
F00780
F00780
F00780
F00780
F80F80
7C3F80
7FFF80
3FE780
0F8780
ENDCHAR
STARTCHAR C0250
ENCODING 250
SWIDTH 616 0
DWIDTH 23 0
BBX 17 31 3 0
BITMAP
003E00
003C00
007800
007000
00F000
00E000
01C000
000000
000000
000000
000000
F00780
F00780
F00780
F00780
F00780
F00780
F00780
F00780
F00780
F00780
F00780
F00780
F00780
F00780
F00780
F80F80
7C3F80
7FFF80
3FE780
0F8780
ENDCHAR
STARTCHAR C0251
ENCODING 251
SWIDTH 616 0
DWIDTH 23 0
BBX 18 31 3 0
BITMAP
01E3C0
03C780
038700
078F00
070E00
060C00
0E1C00
000000
000000
000000
000000
F00780
F00780
F00780
F00780
F00780
F00780
F00780
F00780
F00780
F00780
F00780
F00780
F00780
F00780
F00780
F80F80
7C3F80
7FFF80
3FE780
0F8780
ENDCHAR
STARTCHAR C0252
ENCODING 252
SWIDTH 616 0
DWIDTH 23 0
BBX 17 28 3 0
BITMAP
1E3C00
1E3C00
1E3C00
1E3C00
000000
000000
000000
000000
F00780
F00780
F00780
F00780
F00780
F00780
F00780
F00780
F00780
F00780
F00780
F00780
F00780
F00780
F00780
F80F80
7C3F80
7FFF80
3FE780
0F8780
ENDCHAR
STARTCHAR C0253
ENCODING 253
SWIDTH 589 0
DWIDTH 22 0
BBX 20 38 1 -7
BITMAP
000F80
000F00
001E00
001C00
003C00
003800
007000
000000
000000
000000
000000
F801F0
7801E0
7801E0
3C03C0
3C03C0
3C03C0
1E0780
1E0780
0F0F00
0F0F00
070E00
079E00
079C00
039C00
03FC00
01F800
01F800
00F000
00F000
00E000
01E000
01C000
03C000
03C000
078000
0F8000
0F0000
ENDCHAR
STARTCHAR C0254
ENCODING 254
SWIDTH 401 0
DWIDTH 15 0
BBX 13 33 1 -7
BITMAP
3C00
3C00
3C00
3C00
3C00
3C00
FFF8
FFF8
FFF8
3C00
3C00
3C00
3C00
3C00
3C00
3C00
3C00
3C00
3C00
3C00
3C00
3C00
3E08
1FF8
0FF8
03F0
0070
0070
0070
20F0
3FE0
3FC0
3F80
ENDCHAR
STARTCHAR C0255
ENCODING 255
SWIDTH 642 0
DWIDTH 24 0
BBX 4 4 10 24
BITMAP
F0
F0
F0
F0
ENDCHAR
ENDFONT
